<svg version="1.1" xmlns="http://www.w3.org/2000/svg" viewBox="0 0 1383.9937907620815 1338.6556712600857" width="1383.9937907620815" height="1338.6556712600857">
  <!-- svg-source:excalidraw -->
  
  <defs>
    <style>
      @font-face {
        font-family: "Virgil";
        src: url("https://excalidraw.com/Virgil.woff2");
      }
      @font-face {
        font-family: "Cascadia";
        src: url("https://excalidraw.com/Cascadia.woff2");
      }
    </style>
  </defs>
  <rect x="0" y="0" width="1383.9937907620815" height="1338.6556712600857" fill="#ffffff"></rect><g stroke-linecap="round" transform="translate(432.63881214718094 102.08087846483272) rotate(0 42.21309586436087 31.58993266670717)"><path d="M-1.65 -1.49 C27.52 0.2, 56.01 -2.46, 84.08 1.62 M-0.92 0.33 C21.98 -0.77, 43.78 -0.12, 83.82 -0.45 M84.05 1.05 C85.99 17.76, 84.21 35.2, 83.82 62.82 M84.59 -0.73 C85.63 21.47, 85 45.19, 85.37 63.83 M84.47 61.2 C52.6 63.82, 26.17 63.32, -0.76 63.4 M85.37 63.48 C59.41 63.44, 35.47 62.99, 0.36 63.35 M-0.56 64.42 C-1.1 39.34, 2.34 13.81, 1.77 -1.82 M0.75 64.01 C-0.4 41.82, -1.23 22.42, -0.75 0.4" stroke="#000000" stroke-width="1" fill="none"></path></g><g stroke-linecap="round" transform="translate(467.8629848551907 165.8198576507557) rotate(0 5.591138525080964 4.752467746318786)"><path d="M5.29 -0.64 C7.9 2.07, 9.17 2.52, 11.26 4.92 M6.11 -0.21 C8.28 1.85, 10.12 3.94, 11.24 5.29 M11.61 4.49 C9.98 6.74, 8.24 7.76, 5.37 9.7 M11.47 4.94 C9.22 6.21, 7.94 7.81, 6.14 9.8 M6.34 8.85 C3.26 7.73, 0.7 6.16, 0.46 4.96 M6.16 9.48 C4.79 8.34, 3.31 7.86, 0.2 4.93 M0.04 5.21 C1.49 3.68, 3.12 3.03, 6.19 -0.32 M-0.15 5.22 C1.75 3.72, 3.82 1.34, 5.78 -0.39" stroke="#000000" stroke-width="1" fill="none"></path></g><g stroke-linecap="round" transform="translate(452.2077969849661 171.97011002834478) rotate(0 23.7623387315939 2.236455410032363)"><path d="M-1.76 -1.24 C10.41 -2.11, 21.3 1.02, 47.42 -1.92 M-0.06 0.02 C11.95 -0.89, 25.9 0.32, 47.34 -0.62 M47.64 0.04 C47.41 1.56, 47.71 2.91, 47.34 4.6 M47.65 -0.14 C47.71 1, 47.29 2.05, 47.3 4.51 M48.9 3.11 C32.51 3.67, 12.74 5.73, -1.89 4.8 M48.21 4.38 C34.05 3.9, 19.81 5.22, -0.81 3.51 M-0.19 4.85 C-0.23 3.42, 0.42 1.49, 0.07 0.32 M0.17 4.65 C-0.13 3.2, -0.12 1.8, -0.04 -0.16" stroke="#000000" stroke-width="1" fill="none"></path></g><g stroke-linecap="round" transform="translate(455.5624801000133 140.63873295631134) rotate(0 20.128098690291267 11.5)"><path d="M-1.41 -0.55 C8.2 -0.33, 18.84 0.87, 39 -1.6 M-0.83 -0.57 C13.96 -0.13, 27.83 0.89, 39.76 -0.72 M41.05 1.49 C42.31 10.28, 40.08 20.1, 39.96 21.8 M39.44 -0.35 C40.72 4.62, 39.65 11.1, 41.02 23.61 M41.7 23.64 C27.08 21.16, 12.46 21.97, -0.74 21.01 M40.39 23.54 C25.14 22.02, 9.92 22.1, -0.33 23.02 M0.7 22.17 C0.46 16.44, 0.98 8.21, -0.22 1.82 M0.32 22.16 C-0.29 15.1, 0.42 9.74, -0.96 -0.8" stroke="#000000" stroke-width="1" fill="none"></path></g><g transform="translate(458.3580493625525 143.45530355043212) rotate(0 17.332529427750842 6.988923156351149)"><text x="17.332529427750828" y="9.977846312702273" font-family="Virgil, Segoe UI Emoji" font-size="11.182277050161828px" fill="#000000" text-anchor="middle" style="white-space: pre;" direction="ltr">login</text></g><g stroke-linecap="round"><g transform="translate(1150.2845509979302 159.86607978667735) rotate(0 0.3728881920018239 451.66394038911096)"><path d="M0.15 1.06 C0.19 151.39, 0.41 752.04, 0.6 902.27" stroke="#000000" stroke-width="2.5" fill="none" stroke-dasharray="1.5 8"></path></g></g><g stroke-linecap="round"><g transform="translate(502.61862353159177 154.96318704880247) rotate(0 128.54186927641092 -14.187340544430953)"><path d="M0 0 C42.85 -4.73, 214.24 -23.65, 257.08 -28.37 M0 0 C42.85 -4.73, 214.24 -23.65, 257.08 -28.37" stroke="#000000" stroke-width="2" fill="none"></path></g><g transform="translate(502.61862353159177 154.96318704880247) rotate(0 128.54186927641092 -14.187340544430953)"><path d="M230.19 -15.08 C237.06 -18.48, 243.94 -21.88, 257.08 -28.37 M230.19 -15.08 C238.13 -19.01, 246.07 -22.93, 257.08 -28.37" stroke="#000000" stroke-width="2" fill="none"></path></g><g transform="translate(502.61862353159177 154.96318704880247) rotate(0 128.54186927641092 -14.187340544430953)"><path d="M227.94 -35.48 C235.39 -33.66, 242.84 -31.85, 257.08 -28.37 M227.94 -35.48 C236.54 -33.38, 245.15 -31.28, 257.08 -28.37" stroke="#000000" stroke-width="2" fill="none"></path></g></g><g stroke-linecap="round" transform="translate(610.6272860272611 28.17427096277845) rotate(0 50.18737746420061 14.702781003596783)"><path d="M-1.25 -1.98 C27.62 -1.89, 56.69 -1.4, 98.79 0.05 M-0.38 -0.04 C36.5 0.68, 74.39 0.87, 101.22 -0.42 M101.6 0.03 C99.36 12.63, 99.42 20.85, 100.44 29.21 M100.24 -0.45 C101.04 5.74, 100.37 12.19, 99.65 28.77 M99.37 29.94 C69.03 30.26, 37.39 30.36, 1.15 31.4 M101.05 28.89 C66.74 29.46, 33.39 29.1, -0.64 28.83 M-0.41 28.07 C1.12 19.85, 1.38 11.71, 1.95 -1.25 M0.04 28.44 C-0.02 18.71, 0.85 8.68, 0.34 0.9" stroke="#000000" stroke-width="1" fill="none"></path></g><g transform="translate(615.6272860272611 38.377051966375234) rotate(0 45.18737746420061 4.5)"><text x="45.18737746420059" y="7" font-family="Helvetica, Segoe UI Emoji" font-size="7.3347627188267674px" fill="#000000" text-anchor="middle" style="white-space: pre;" direction="ltr">CredentialsSubmitted</text></g><g transform="translate(614.2715650794362 78.15744313526284) rotate(0 48.77364852154699 19.226713620088105)"><text x="0" y="7.613356810044056" font-family="Cascadia, Segoe UI Emoji" font-size="7.916882078859801px" fill="#000000" text-anchor="start" style="white-space: pre;" direction="ltr">{</text><text x="0" y="17.226713620088113" font-family="Cascadia, Segoe UI Emoji" font-size="7.916882078859801px" fill="#000000" text-anchor="start" style="white-space: pre;" direction="ltr">    email: string;</text><text x="0" y="26.84007043013217" font-family="Cascadia, Segoe UI Emoji" font-size="7.916882078859801px" fill="#000000" text-anchor="start" style="white-space: pre;" direction="ltr">    password: string;</text><text x="0" y="36.453427240176225" font-family="Cascadia, Segoe UI Emoji" font-size="7.916882078859801px" fill="#000000" text-anchor="start" style="white-space: pre;" direction="ltr">}</text></g><g stroke-linecap="round" transform="translate(754.5448923893891 81.09485771610946) rotate(0 47.92541115595486 32.93988436382742)"><path d="M49.53 1.98 C63.86 9.62, 79.25 20.95, 94.95 31.9 M47.74 0.62 C57.99 7.02, 68.42 15.36, 94.97 32.73 M96.21 32.67 C76.33 46.83, 60.87 58.74, 48.55 64.78 M95.05 33.98 C79.07 44.25, 61.6 57.13, 47.33 66.58 M47.57 64.32 C37.18 59.04, 26.49 53.23, -1.68 33.32 M47.07 66.67 C30.14 55.29, 13.27 42.92, -0.11 33.97 M-1.73 34.88 C14.69 24.84, 23.82 16.15, 48.53 0.01 M0.61 32.87 C14.29 22.23, 30.01 12.6, 47.92 -0.62" stroke="#000000" stroke-width="1" fill="none"></path></g><g transform="translate(759.5448923893891 100.53474207993685) rotate(0 42.92541115595486 13.5)"><text x="42.92541115595491" y="7" font-family="Helvetica, Segoe UI Emoji" font-size="7.306452962715731px" fill="#000000" text-anchor="middle" style="white-space: pre;" direction="ltr">Credentials</text><text x="42.92541115595491" y="16" font-family="Helvetica, Segoe UI Emoji" font-size="7.306452962715731px" fill="#000000" text-anchor="middle" style="white-space: pre;" direction="ltr">Submitted</text><text x="42.92541115595491" y="25" font-family="Helvetica, Segoe UI Emoji" font-size="7.306452962715731px" fill="#000000" text-anchor="middle" style="white-space: pre;" direction="ltr">Handler</text></g><g transform="translate(1189.7377852362388 186.24487485080704) rotate(0 36.10394437833776 8.765119444451926)"><text x="0" y="14.53023888890386" font-family="Helvetica, Segoe UI Emoji" font-size="15.025919047631893px" fill="#000000" text-anchor="start" style="white-space: pre;" direction="ltr">Repository</text></g><g stroke-linecap="round"><g transform="translate(854.9378237611347 122.97918149566135) rotate(0 159.62089935742205 54.52323735503461)"><path d="M0 0 C53.21 18.17, 266.03 90.87, 319.24 109.05 M0 0 C53.21 18.17, 266.03 90.87, 319.24 109.05" stroke="#000000" stroke-width="2" fill="none"></path></g><g transform="translate(854.9378237611347 122.97918149566135) rotate(0 159.62089935742205 54.52323735503461)"><path d="M289.25 109.64 C295.84 109.51, 302.43 109.38, 319.24 109.05 M289.25 109.64 C295.44 109.52, 301.64 109.4, 319.24 109.05" stroke="#000000" stroke-width="2" fill="none"></path></g><g transform="translate(854.9378237611347 122.97918149566135) rotate(0 159.62089935742205 54.52323735503461)"><path d="M295.88 90.22 C301.01 94.36, 306.15 98.5, 319.24 109.05 M295.88 90.22 C300.71 94.11, 305.53 98, 319.24 109.05" stroke="#000000" stroke-width="2" fill="none"></path></g></g><g stroke-linecap="round" transform="translate(895.446543673861 113.20221281370766) rotate(0 18.378476254496036 12.016696012555059)"><path d="M36.76 12.02 C36.76 12.71, 36.66 13.42, 36.48 14.1 C36.29 14.79, 36.01 15.47, 35.65 16.13 C35.28 16.78, 34.83 17.42, 34.29 18.03 C33.76 18.63, 33.14 19.21, 32.46 19.74 C31.77 20.27, 31.01 20.77, 30.19 21.22 C29.38 21.67, 28.49 22.08, 27.57 22.42 C26.65 22.77, 25.66 23.07, 24.66 23.31 C23.66 23.55, 22.62 23.73, 21.57 23.85 C20.52 23.97, 19.44 24.03, 18.38 24.03 C17.31 24.03, 16.23 23.97, 15.19 23.85 C14.14 23.73, 13.09 23.55, 12.09 23.31 C11.09 23.07, 10.11 22.77, 9.19 22.42 C8.27 22.08, 7.38 21.67, 6.57 21.22 C5.75 20.77, 4.98 20.27, 4.3 19.74 C3.62 19.21, 2.99 18.63, 2.46 18.03 C1.93 17.42, 1.47 16.78, 1.11 16.13 C0.74 15.47, 0.46 14.79, 0.28 14.1 C0.09 13.42, 0 12.71, 0 12.02 C0 11.32, 0.09 10.62, 0.28 9.93 C0.46 9.25, 0.74 8.56, 1.11 7.91 C1.47 7.25, 1.93 6.61, 2.46 6.01 C2.99 5.41, 3.62 4.83, 4.3 4.29 C4.98 3.76, 5.75 3.26, 6.57 2.81 C7.38 2.36, 8.27 1.96, 9.19 1.61 C10.11 1.26, 11.09 0.96, 12.09 0.72 C13.09 0.49, 14.14 0.3, 15.19 0.18 C16.23 0.06, 17.31 0, 18.38 0 C19.44 0, 20.52 0.06, 21.57 0.18 C22.62 0.3, 23.66 0.49, 24.66 0.72 C25.66 0.96, 26.65 1.26, 27.57 1.61 C28.49 1.96, 29.38 2.36, 30.19 2.81 C31.01 3.26, 31.77 3.76, 32.46 4.29 C33.14 4.83, 33.76 5.41, 34.29 6.01 C34.83 6.61, 35.28 7.25, 35.65 7.91 C36.01 8.56, 36.29 9.25, 36.48 9.93 C36.66 10.62, 36.71 11.67, 36.76 12.02 C36.8 12.36, 36.8 11.67, 36.76 12.02" stroke="#1864ab" stroke-width="2" fill="none"></path></g><g transform="translate(900.446543673861 120.21890882626275) rotate(0 13.378476254496036 5)"><text x="13.378476254495997" y="8" font-family="Cascadia, Segoe UI Emoji" font-size="8.027085752697602px" fill="#1864ab" text-anchor="middle" style="white-space: pre;" direction="ltr">GET</text></g><g transform="translate(831.7816169563616 151.23152137108752) rotate(0 48.77364852154699 19.226713620088105)"><text x="0" y="7.613356810044056" font-family="Cascadia, Segoe UI Emoji" font-size="7.916882078859801px" fill="#000000" text-anchor="start" style="white-space: pre;" direction="ltr">{</text><text x="0" y="17.226713620088113" font-family="Cascadia, Segoe UI Emoji" font-size="7.916882078859801px" fill="#000000" text-anchor="start" style="white-space: pre;" direction="ltr">    email: string;</text><text x="0" y="26.84007043013217" font-family="Cascadia, Segoe UI Emoji" font-size="7.916882078859801px" fill="#000000" text-anchor="start" style="white-space: pre;" direction="ltr">    password: string;</text><text x="0" y="36.453427240176225" font-family="Cascadia, Segoe UI Emoji" font-size="7.916882078859801px" fill="#000000" text-anchor="start" style="white-space: pre;" direction="ltr">}</text></g><g transform="translate(1183.5984632729826 231.22462247988108) rotate(0 43.42122335709843 6.391002572040463)"><text x="0" y="10.782005144080918" font-family="Cascadia, Segoe UI Emoji" font-size="10.526357177478406px" fill="#000000" text-anchor="start" style="white-space: pre;" direction="ltr">IndexDBAdapter</text></g><g stroke-linecap="round" transform="translate(1197.0696941846363 256.85128965600387) rotate(0 26.879804935346613 22.93242099379225)"><path d="M53.76 22.93 C53.76 24.26, 53.62 25.61, 53.35 26.91 C53.08 28.22, 52.67 29.53, 52.14 30.78 C51.61 32.02, 50.94 33.25, 50.16 34.4 C49.38 35.55, 48.47 36.66, 47.47 37.67 C46.47 38.69, 45.35 39.65, 44.16 40.5 C42.97 41.35, 41.67 42.13, 40.32 42.79 C38.97 43.46, 37.54 44.03, 36.07 44.48 C34.61 44.94, 33.08 45.29, 31.55 45.52 C30.02 45.75, 28.44 45.86, 26.88 45.86 C25.32 45.86, 23.74 45.75, 22.21 45.52 C20.68 45.29, 19.15 44.94, 17.69 44.48 C16.22 44.03, 14.79 43.46, 13.44 42.79 C12.09 42.13, 10.79 41.35, 9.6 40.5 C8.41 39.65, 7.29 38.69, 6.29 37.67 C5.29 36.66, 4.38 35.55, 3.6 34.4 C2.82 33.25, 2.15 32.02, 1.62 30.78 C1.09 29.53, 0.68 28.22, 0.41 26.91 C0.14 25.61, 0 24.26, 0 22.93 C0 21.61, 0.14 20.26, 0.41 18.95 C0.68 17.64, 1.09 16.34, 1.62 15.09 C2.15 13.84, 2.82 12.62, 3.6 11.47 C4.38 10.32, 5.29 9.21, 6.29 8.19 C7.29 7.17, 8.41 6.22, 9.6 5.37 C10.79 4.51, 12.09 3.74, 13.44 3.07 C14.79 2.41, 16.22 1.84, 17.69 1.38 C19.15 0.93, 20.68 0.58, 22.21 0.35 C23.74 0.12, 25.32 0, 26.88 0 C28.44 0, 30.02 0.12, 31.55 0.35 C33.08 0.58, 34.61 0.93, 36.07 1.38 C37.54 1.84, 38.97 2.41, 40.32 3.07 C41.67 3.74, 42.97 4.51, 44.16 5.37 C45.35 6.22, 46.47 7.17, 47.47 8.19 C48.47 9.21, 49.38 10.32, 50.16 11.47 C50.94 12.62, 51.61 13.84, 52.14 15.09 C52.67 16.34, 53.08 17.64, 53.35 18.95 C53.62 20.26, 53.69 22.27, 53.76 22.93 C53.83 23.6, 53.83 22.27, 53.76 22.93" stroke="#1864ab" stroke-width="2" fill="none"></path></g><g transform="translate(1198.9494008234722 273.39270807775574) rotate(0 25.000098296511226 6.391002572040463)"><text x="25.0000982965112" y="10.782005144080918" font-family="Cascadia, Segoe UI Emoji" font-size="10.526357177478394px" fill="#1864ab" text-anchor="middle" style="white-space: pre;" direction="ltr">onerror</text></g><g stroke-linecap="round" transform="translate(1193.6235653467727 320.13474649679665) rotate(0 30.827188876901005 26.127922279812466)"><path d="M61.65 26.13 C61.65 27.64, 61.5 29.18, 61.19 30.66 C60.88 32.15, 60.41 33.64, 59.8 35.06 C59.18 36.49, 58.42 37.88, 57.52 39.19 C56.63 40.5, 55.59 41.76, 54.44 42.92 C53.3 44.08, 52.01 45.17, 50.64 46.14 C49.28 47.12, 47.79 48, 46.24 48.76 C44.7 49.51, 43.05 50.16, 41.37 50.68 C39.69 51.2, 37.94 51.6, 36.18 51.86 C34.42 52.12, 32.61 52.26, 30.83 52.26 C29.04 52.26, 27.23 52.12, 25.47 51.86 C23.72 51.6, 21.96 51.2, 20.28 50.68 C18.61 50.16, 16.96 49.51, 15.41 48.76 C13.87 48, 12.38 47.12, 11.01 46.14 C9.64 45.17, 8.36 44.08, 7.21 42.92 C6.07 41.76, 5.02 40.5, 4.13 39.19 C3.24 37.88, 2.47 36.49, 1.86 35.06 C1.25 33.64, 0.78 32.15, 0.47 30.66 C0.16 29.18, 0 27.64, 0 26.13 C0 24.62, 0.16 23.08, 0.47 21.59 C0.78 20.1, 1.25 18.61, 1.86 17.19 C2.47 15.77, 3.24 14.37, 4.13 13.06 C5.02 11.75, 6.07 10.49, 7.21 9.33 C8.36 8.17, 9.64 7.08, 11.01 6.11 C12.38 5.14, 13.87 4.26, 15.41 3.5 C16.96 2.74, 18.61 2.09, 20.28 1.58 C21.96 1.06, 23.72 0.66, 25.47 0.4 C27.23 0.13, 29.04 0, 30.83 0 C32.61 0, 34.42 0.13, 36.18 0.4 C37.94 0.66, 39.69 1.06, 41.37 1.58 C43.05 2.09, 44.7 2.74, 46.24 3.5 C47.79 4.26, 49.28 5.14, 50.64 6.11 C52.01 7.08, 53.3 8.17, 54.44 9.33 C55.59 10.49, 56.63 11.75, 57.52 13.06 C58.42 14.37, 59.18 15.77, 59.8 17.19 C60.41 18.61, 60.88 20.1, 61.19 21.59 C61.5 23.08, 61.58 25.37, 61.65 26.13 C61.73 26.88, 61.73 25.37, 61.65 26.13" stroke="#1864ab" stroke-width="2" fill="none"></path></g><g transform="translate(1195.5032719856065 339.87166620456884) rotate(0 28.947482238065618 6.391002572040463)"><text x="28.947482238065604" y="10.782005144080918" font-family="Cascadia, Segoe UI Emoji" font-size="10.526357177478408px" fill="#1864ab" text-anchor="middle" style="white-space: pre;" direction="ltr">onsuccess</text></g><g stroke-linecap="round" transform="translate(1178.8991966758958 217.06416580065422) rotate(0 47.7758770704005 84.11687208788533)"><path d="M23.89 0 M23.89 0 C39.93 0, 55.97 0, 71.66 0 M71.66 0 C87.59 0, 95.55 7.96, 95.55 23.89 M95.55 23.89 C95.55 51.98, 95.55 80.07, 95.55 144.35 M95.55 144.35 C95.55 160.27, 87.59 168.23, 71.66 168.23 M71.66 168.23 C52.81 168.23, 33.96 168.23, 23.89 168.23 M23.89 168.23 C7.96 168.23, 0 160.27, 0 144.35 M0 144.35 C0 108.63, 0 72.92, 0 23.89 M0 23.89 C0 7.96, 7.96 0, 23.89 0" stroke="#1864ab" stroke-width="2.5" fill="none" stroke-dasharray="8 10"></path></g><g stroke-linecap="round" transform="translate(714.9133576970041 201.9372661142611) rotate(0 61.49720900542877 45.38069905917857)"><path d="M62 0 C82.7 15.61, 103.39 31.22, 122.99 46 M62 0 C77.56 11.73, 93.11 23.47, 122.99 46 M122.99 46 C103.28 60.47, 83.56 74.94, 62 90.76 M122.99 46 C106.04 58.44, 89.09 70.88, 62 90.76 M62 90.76 C38.76 73.99, 15.53 57.21, 0 46 M62 90.76 C45.49 78.84, 28.97 66.92, 0 46 M0 46 C18.06 32.6, 36.13 19.19, 62 0 M0 46 C13.07 36.31, 26.13 26.61, 62 0" stroke="#000000" stroke-width="2" fill="none"></path></g><g transform="translate(719.9133576970041 233.81796517343963) rotate(0 56.49720900542877 13.5)"><text x="56.497209005428815" y="7" font-family="Cascadia, Segoe UI Emoji" font-size="7.444338127774149px" fill="#000000" text-anchor="middle" style="white-space: pre;" direction="ltr">UploadedRepository</text><text x="56.497209005428815" y="16" font-family="Cascadia, Segoe UI Emoji" font-size="7.444338127774149px" fill="#000000" text-anchor="middle" style="white-space: pre;" direction="ltr">CredentialsData</text><text x="56.497209005428815" y="25" font-family="Cascadia, Segoe UI Emoji" font-size="7.444338127774149px" fill="#000000" text-anchor="middle" style="white-space: pre;" direction="ltr">Handler</text></g><g stroke-linecap="round"><g transform="translate(1191.4995083667563 343.6578135218941) rotate(0 -186.28859095244616 -39.735260232811356)"><path d="M0 0 C-62.1 -13.25, -310.48 -66.23, -372.58 -79.47 M0 0 C-62.1 -13.25, -310.48 -66.23, -372.58 -79.47" stroke="#000000" stroke-width="2" fill="none"></path></g><g transform="translate(1191.4995083667563 343.6578135218941) rotate(0 -186.28859095244616 -39.735260232811356)"><path d="M-342.87 -83.62 C-351.28 -82.45, -359.7 -81.27, -372.58 -79.47 M-342.87 -83.62 C-352.57 -82.27, -362.27 -80.91, -372.58 -79.47" stroke="#000000" stroke-width="2" fill="none"></path></g><g transform="translate(1191.4995083667563 343.6578135218941) rotate(0 -186.28859095244616 -39.735260232811356)"><path d="M-347.15 -63.55 C-354.35 -68.06, -361.56 -72.57, -372.58 -79.47 M-347.15 -63.55 C-355.45 -68.75, -363.76 -73.95, -372.58 -79.47" stroke="#000000" stroke-width="2" fill="none"></path></g></g><g stroke-linecap="round" transform="translate(975.1808560395193 210.98513134724374) rotate(0 39.86715618282972 19.226713620088105)"><path d="M-0.41 -0.52 C29.23 1.42, 59.46 0.63, 80.35 -1.6 M-0.68 0.78 C30.09 0.42, 60.23 -0.39, 78.92 -0.95 M80.65 -1.97 C80.24 14.38, 78.55 27.57, 81.5 37.88 M78.8 -0.68 C79.2 13.23, 80.71 25.21, 79.09 38.3 M77.99 39.21 C53.69 36.38, 24 38.43, -1.18 39.25 M78.82 38.77 C62.68 38.28, 46.12 38.94, -0.99 39.38 M0.88 39.46 C-1.75 25.6, -1.72 13.55, 1.79 0.91 M0.5 38.35 C-0.42 23.5, 0.23 7.93, 0.53 0.25" stroke="#000000" stroke-width="1" fill="none"></path></g><g transform="translate(980.1808560395193 222.21184496733184) rotate(0 34.86715618282972 8)"><text x="34.867156182829746" y="6" font-family="Helvetica, Segoe UI Emoji" font-size="7.1785321552884716px" fill="#000000" text-anchor="middle" style="white-space: pre;" direction="ltr">UploadedRepository</text><text x="34.867156182829746" y="14" font-family="Helvetica, Segoe UI Emoji" font-size="7.1785321552884716px" fill="#000000" text-anchor="middle" style="white-space: pre;" direction="ltr">CredentialsData</text></g><g transform="translate(966.7456066816878 253.5854968192038) rotate(0 55.700920340549374 24.033392025110146)"><text x="0" y="7.613356810044056" font-family="Cascadia, Segoe UI Emoji" font-size="7.916882078859816px" fill="#000000" text-anchor="start" style="white-space: pre;" direction="ltr">{</text><text x="0" y="17.226713620088113" font-family="Cascadia, Segoe UI Emoji" font-size="7.916882078859816px" fill="#000000" text-anchor="start" style="white-space: pre;" direction="ltr">    email: string;</text><text x="0" y="26.84007043013217" font-family="Cascadia, Segoe UI Emoji" font-size="7.916882078859816px" fill="#000000" text-anchor="start" style="white-space: pre;" direction="ltr">    password: string</text><text x="0" y="36.453427240176225" font-family="Cascadia, Segoe UI Emoji" font-size="7.916882078859816px" fill="#000000" text-anchor="start" style="white-space: pre;" direction="ltr">} + Request.result [any]</text><text x="0" y="46.06678405022028" font-family="Cascadia, Segoe UI Emoji" font-size="7.916882078859816px" fill="#000000" text-anchor="start" style="white-space: pre;" direction="ltr">    </text></g><g stroke-linecap="round" transform="translate(1021.5511653585565 523.5370384188968) rotate(0 58.81112401438713 46.370309319036025)"><path d="M59 0 C79.19 16.19, 99.38 32.38, 117.62 47 M59 0 C77.38 14.74, 95.77 29.48, 117.62 47 M117.62 47 C98.06 62.26, 78.5 77.52, 59 92.74 M117.62 47 C102.28 58.97, 86.94 70.94, 59 92.74 M59 92.74 C45.33 82.14, 31.65 71.54, 0 47 M59 92.74 C44.73 81.68, 30.46 70.62, 0 47 M0 47 C23.34 28.4, 46.69 9.81, 59 0 M0 47 C19.77 31.25, 39.54 15.5, 59 0" stroke="#000000" stroke-width="2" fill="none"></path></g><g stroke-linecap="round" transform="translate(727.0243023057342 1248.073121528834) rotate(0 51.176987724057994 40.29127486562584)"><path d="M52 0 C71.22 15.65, 90.44 31.3, 102.35 41 M52 0 C64.8 10.42, 77.59 20.84, 102.35 41 M102.35 41 C85.43 54.3, 68.51 67.6, 52 80.58 M102.35 41 C90.16 50.59, 77.96 60.18, 52 80.58 M52 80.58 C37.34 69.43, 22.69 58.27, 0 41 M52 80.58 C40.22 71.61, 28.44 62.65, 0 41 M0 41 C12.12 31.45, 24.23 21.89, 52 0 M0 41 C12.96 30.78, 25.92 20.57, 52 0" stroke="#000000" stroke-width="2" fill="none"></path></g><g stroke-linecap="round" transform="translate(462.84548722187765 286.4546947358986) rotate(0 42.8359869624021 22.9024088709873)"><path d="M85.67 22.9 C85.67 24.1, 85.49 25.31, 85.14 26.49 C84.8 27.66, 84.27 28.84, 83.58 29.98 C82.89 31.12, 82.02 32.24, 81 33.3 C79.99 34.36, 78.8 35.4, 77.49 36.36 C76.18 37.33, 74.71 38.25, 73.13 39.1 C71.55 39.94, 69.82 40.73, 68.01 41.43 C66.21 42.13, 64.27 42.77, 62.28 43.31 C60.29 43.85, 58.2 44.31, 56.07 44.68 C53.95 45.05, 51.74 45.34, 49.54 45.52 C47.33 45.71, 45.07 45.8, 42.84 45.8 C40.6 45.8, 38.34 45.71, 36.13 45.52 C33.93 45.34, 31.72 45.05, 29.6 44.68 C27.47 44.31, 25.38 43.85, 23.39 43.31 C21.4 42.77, 19.46 42.13, 17.66 41.43 C15.85 40.73, 14.13 39.94, 12.55 39.1 C10.97 38.25, 9.49 37.33, 8.18 36.36 C6.87 35.4, 5.68 34.36, 4.67 33.3 C3.65 32.24, 2.79 31.12, 2.1 29.98 C1.41 28.84, 0.88 27.66, 0.53 26.49 C0.18 25.31, 0 24.1, 0 22.9 C0 21.71, 0.18 20.5, 0.53 19.32 C0.88 18.14, 1.41 16.96, 2.1 15.83 C2.79 14.69, 3.65 13.57, 4.67 12.5 C5.68 11.44, 6.87 10.41, 8.18 9.44 C9.49 8.47, 10.97 7.55, 12.55 6.71 C14.13 5.86, 15.85 5.08, 17.66 4.37 C19.46 3.67, 21.4 3.04, 23.39 2.5 C25.38 1.95, 27.47 1.49, 29.6 1.12 C31.72 0.75, 33.93 0.47, 36.13 0.28 C38.34 0.1, 40.6 0, 42.84 0 C45.07 0, 47.33 0.1, 49.54 0.28 C51.74 0.47, 53.95 0.75, 56.07 1.12 C58.2 1.49, 60.29 1.95, 62.28 2.5 C64.27 3.04, 66.21 3.67, 68.01 4.37 C69.82 5.08, 71.55 5.86, 73.13 6.71 C74.71 7.55, 76.18 8.47, 77.49 9.44 C78.8 10.41, 79.99 11.44, 81 12.5 C82.02 13.57, 82.89 14.69, 83.58 15.83 C84.27 16.96, 84.8 18.14, 85.14 19.32 C85.49 20.5, 85.58 22.31, 85.67 22.9 C85.76 23.5, 85.76 22.31, 85.67 22.9" stroke="#364fc7" stroke-width="2" fill="none"></path></g><g transform="translate(467.84548722187765 295.8571036068859) rotate(0 37.8359869624021 13.5)"><text x="37.83598696240216" y="7" font-family="Cascadia, Segoe UI Emoji" font-size="7.2314514330871px" fill="#364fc7" text-anchor="middle" style="white-space: pre;" direction="ltr">IF </text><text x="37.83598696240216" y="16" font-family="Cascadia, Segoe UI Emoji" font-size="7.2314514330871px" fill="#364fc7" text-anchor="middle" style="white-space: pre;" direction="ltr">Request.result.le</text><text x="37.83598696240216" y="25" font-family="Cascadia, Segoe UI Emoji" font-size="7.2314514330871px" fill="#364fc7" text-anchor="middle" style="white-space: pre;" direction="ltr">ngth &lt; 1</text></g><g stroke-linecap="round" transform="translate(895.9177866547441 485.7904756500468) rotate(0 55.700920340549374 31.384782526908513)"><path d="M111.4 31.38 C111.4 32.87, 111.21 34.38, 110.83 35.85 C110.46 37.32, 109.89 38.8, 109.15 40.23 C108.4 41.66, 107.47 43.07, 106.37 44.42 C105.27 45.78, 103.99 47.1, 102.56 48.35 C101.13 49.61, 99.53 50.81, 97.8 51.94 C96.07 53.06, 94.17 54.13, 92.18 55.1 C90.18 56.08, 88.04 56.98, 85.82 57.79 C83.59 58.59, 81.24 59.31, 78.84 59.93 C76.44 60.55, 73.93 61.08, 71.39 61.5 C68.86 61.92, 66.24 62.24, 63.63 62.45 C61.01 62.66, 58.34 62.77, 55.7 62.77 C53.06 62.77, 50.39 62.66, 47.77 62.45 C45.16 62.24, 42.54 61.92, 40.01 61.5 C37.47 61.08, 34.97 60.55, 32.56 59.93 C30.16 59.31, 27.81 58.59, 25.59 57.79 C23.36 56.98, 21.22 56.08, 19.22 55.1 C17.23 54.13, 15.34 53.06, 13.6 51.94 C11.87 50.81, 10.27 49.61, 8.84 48.35 C7.41 47.1, 6.13 45.78, 5.03 44.42 C3.94 43.07, 3 41.66, 2.26 40.23 C1.51 38.8, 0.94 37.32, 0.57 35.85 C0.19 34.38, 0 32.87, 0 31.38 C0 29.9, 0.19 28.39, 0.57 26.92 C0.94 25.44, 1.51 23.97, 2.26 22.54 C3 21.11, 3.94 19.7, 5.03 18.35 C6.13 16.99, 7.41 15.67, 8.84 14.42 C10.27 13.16, 11.87 11.96, 13.6 10.83 C15.34 9.71, 17.23 8.64, 19.22 7.67 C21.22 6.69, 23.36 5.79, 25.59 4.98 C27.81 4.18, 30.16 3.45, 32.56 2.84 C34.97 2.22, 37.47 1.69, 40.01 1.27 C42.54 0.85, 45.16 0.53, 47.77 0.32 C50.39 0.11, 53.06 0, 55.7 0 C58.34 0, 61.01 0.11, 63.63 0.32 C66.24 0.53, 68.86 0.85, 71.39 1.27 C73.93 1.69, 76.44 2.22, 78.84 2.84 C81.24 3.45, 83.59 4.18, 85.82 4.98 C88.04 5.79, 90.18 6.69, 92.18 7.67 C94.17 8.64, 96.07 9.71, 97.8 10.83 C99.53 11.96, 101.13 13.16, 102.56 14.42 C103.99 15.67, 105.27 16.99, 106.37 18.35 C107.47 19.7, 108.4 21.11, 109.15 22.54 C109.89 23.97, 110.46 25.44, 110.83 26.92 C111.21 28.39, 111.31 30.64, 111.4 31.38 C111.5 32.13, 111.5 30.64, 111.4 31.38" stroke="#364fc7" stroke-width="2" fill="none"></path></g><g transform="translate(900.9177866547441 499.17525817695525) rotate(0 50.700920340549374 18)"><text x="50.70092034054938" y="7" font-family="Cascadia, Segoe UI Emoji" font-size="7.39388421633012px" fill="#364fc7" text-anchor="middle" style="white-space: pre;" direction="ltr">IF Request.result</text><text x="50.70092034054938" y="16" font-family="Cascadia, Segoe UI Emoji" font-size="7.39388421633012px" fill="#364fc7" text-anchor="middle" style="white-space: pre;" direction="ltr">ALL</text><text x="50.70092034054938" y="25" font-family="Cascadia, Segoe UI Emoji" font-size="7.39388421633012px" fill="#364fc7" text-anchor="middle" style="white-space: pre;" direction="ltr">credentials.expire &gt; </text><text x="50.70092034054938" y="34" font-family="Cascadia, Segoe UI Emoji" font-size="7.39388421633012px" fill="#364fc7" text-anchor="middle" style="white-space: pre;" direction="ltr">now</text></g><g stroke-linecap="round" transform="translate(676.1300603702095 438.666177561596) rotate(0 42.83598696240222 22.9024088709873)"><path d="M85.67 22.9 C85.67 24.1, 85.49 25.31, 85.14 26.49 C84.8 27.66, 84.27 28.84, 83.58 29.98 C82.89 31.12, 82.02 32.24, 81 33.3 C79.99 34.36, 78.8 35.4, 77.49 36.36 C76.18 37.33, 74.71 38.25, 73.13 39.1 C71.55 39.94, 69.82 40.73, 68.01 41.43 C66.21 42.13, 64.27 42.77, 62.28 43.31 C60.29 43.85, 58.2 44.31, 56.07 44.68 C53.95 45.05, 51.74 45.34, 49.54 45.52 C47.33 45.71, 45.07 45.8, 42.84 45.8 C40.6 45.8, 38.34 45.71, 36.13 45.52 C33.93 45.34, 31.72 45.05, 29.6 44.68 C27.47 44.31, 25.38 43.85, 23.39 43.31 C21.4 42.77, 19.46 42.13, 17.66 41.43 C15.85 40.73, 14.13 39.94, 12.55 39.1 C10.97 38.25, 9.49 37.33, 8.18 36.36 C6.87 35.4, 5.68 34.36, 4.67 33.3 C3.65 32.24, 2.79 31.12, 2.1 29.98 C1.41 28.84, 0.88 27.66, 0.53 26.49 C0.18 25.31, 0 24.1, 0 22.9 C0 21.71, 0.18 20.5, 0.53 19.32 C0.88 18.14, 1.41 16.96, 2.1 15.83 C2.79 14.69, 3.65 13.57, 4.67 12.5 C5.68 11.44, 6.87 10.41, 8.18 9.44 C9.49 8.47, 10.97 7.55, 12.55 6.71 C14.13 5.86, 15.85 5.08, 17.66 4.37 C19.46 3.67, 21.4 3.04, 23.39 2.5 C25.38 1.95, 27.47 1.49, 29.6 1.12 C31.72 0.75, 33.93 0.47, 36.13 0.28 C38.34 0.1, 40.6 0, 42.84 0 C45.07 0, 47.33 0.1, 49.54 0.28 C51.74 0.47, 53.95 0.75, 56.07 1.12 C58.2 1.49, 60.29 1.95, 62.28 2.5 C64.27 3.04, 66.21 3.67, 68.01 4.37 C69.82 5.08, 71.55 5.86, 73.13 6.71 C74.71 7.55, 76.18 8.47, 77.49 9.44 C78.8 10.41, 79.99 11.44, 81 12.5 C82.02 13.57, 82.89 14.69, 83.58 15.83 C84.27 16.96, 84.8 18.14, 85.14 19.32 C85.49 20.5, 85.58 22.31, 85.67 22.9 C85.76 23.5, 85.76 22.31, 85.67 22.9" stroke="#364fc7" stroke-width="2" fill="none"></path></g><g transform="translate(681.1300603702095 448.0685864325833) rotate(0 37.83598696240222 13.5)"><text x="37.83598696240216" y="7" font-family="Cascadia, Segoe UI Emoji" font-size="7.2314514330871px" fill="#364fc7" text-anchor="middle" style="white-space: pre;" direction="ltr">IF </text><text x="37.83598696240216" y="16" font-family="Cascadia, Segoe UI Emoji" font-size="7.2314514330871px" fill="#364fc7" text-anchor="middle" style="white-space: pre;" direction="ltr">validcredentials </text><text x="37.83598696240216" y="25" font-family="Cascadia, Segoe UI Emoji" font-size="7.2314514330871px" fill="#364fc7" text-anchor="middle" style="white-space: pre;" direction="ltr">&gt; 1</text></g><g stroke-linecap="round"><g transform="translate(736.830753108273 265.539135942994) rotate(0 -107.23394988808707 45.06546675560949)"><path d="M0 0 C-35.74 15.02, -178.72 75.11, -214.47 90.13 M0 0 C-35.74 15.02, -178.72 75.11, -214.47 90.13" stroke="#000000" stroke-width="2" fill="none"></path></g><g transform="translate(736.830753108273 265.539135942994) rotate(0 -107.23394988808707 45.06546675560949)"><path d="M-192.45 69.75 C-198.54 75.38, -204.62 81.01, -214.47 90.13 M-192.45 69.75 C-198.89 75.71, -205.33 81.67, -214.47 90.13" stroke="#000000" stroke-width="2" fill="none"></path></g><g transform="translate(736.830753108273 265.539135942994) rotate(0 -107.23394988808707 45.06546675560949)"><path d="M-184.5 88.67 C-192.78 89.07, -201.06 89.48, -214.47 90.13 M-184.5 88.67 C-193.26 89.1, -202.03 89.52, -214.47 90.13" stroke="#000000" stroke-width="2" fill="none"></path></g></g><g stroke-linecap="round"><g transform="translate(806.6345154403716 272.58503021881324) rotate(0 121.23054761182937 135.32559681536654)"><path d="M0 0 C40.41 45.11, 202.05 225.54, 242.46 270.65 M0 0 C40.41 45.11, 202.05 225.54, 242.46 270.65" stroke="#000000" stroke-width="2" fill="none"></path></g><g transform="translate(806.6345154403716 272.58503021881324) rotate(0 121.23054761182937 135.32559681536654)"><path d="M216.01 256.5 C222.78 260.12, 229.55 263.74, 242.46 270.65 M216.01 256.5 C221.51 259.44, 227 262.38, 242.46 270.65" stroke="#000000" stroke-width="2" fill="none"></path></g><g transform="translate(806.6345154403716 272.58503021881324) rotate(0 121.23054761182937 135.32559681536654)"><path d="M231.29 242.81 C234.15 249.93, 237.01 257.06, 242.46 270.65 M231.29 242.81 C233.61 248.59, 235.94 254.38, 242.46 270.65" stroke="#000000" stroke-width="2" fill="none"></path></g></g><g stroke-linecap="round"><g transform="translate(1254.5336951078584 279.9044173016036) rotate(0 35.69665580200183 0)"><path d="M0 0 C11.9 0, 59.49 0, 71.39 0" stroke="#000000" stroke-width="1.5" fill="none" stroke-dasharray="1.5 7"></path></g><g transform="translate(1254.5336951078584 279.9044173016036) rotate(0 35.69665580200183 0)"><path d="M43.2 10.26 C53.32 6.58, 63.44 2.9, 71.39 0" stroke="#000000" stroke-width="1.5" fill="none" stroke-dasharray="1.5 5"></path></g><g transform="translate(1254.5336951078584 279.9044173016036) rotate(0 35.69665580200183 0)"><path d="M43.2 -10.26 C53.32 -6.58, 63.44 -2.9, 71.39 0" stroke="#000000" stroke-width="1.5" fill="none" stroke-dasharray="1.5 5"></path></g></g><g stroke-linecap="round" transform="translate(453.4206276041882 340.6947618357059) rotate(0 46.65305510756673 34.63635909501164)"><path d="M47 0 C60.96 10.55, 74.91 21.1, 93.31 35 M47 0 C58.45 8.65, 69.89 17.3, 93.31 35 M93.31 35 C75.38 48.27, 57.45 61.54, 47 69.27 M93.31 35 C79.3 45.37, 65.3 55.73, 47 69.27 M47 69.27 C31.87 58.24, 16.75 47.21, 0 35 M47 69.27 C35.1 60.59, 23.2 51.92, 0 35 M0 35 C10.55 27.14, 21.11 19.28, 47 0 M0 35 C14.04 24.55, 28.07 14.1, 47 0" stroke="#000000" stroke-width="2" fill="none"></path></g><g transform="translate(480.98834198593613 354.5493054737104) rotate(0 23.185154659518048 19.226713620088105)"><text x="0" y="7.613356810044056" font-family="Cascadia, Segoe UI Emoji" font-size="7.916882078859817px" fill="#000000" text-anchor="start" style="white-space: pre;" direction="ltr">Cached</text><text x="0" y="17.226713620088113" font-family="Cascadia, Segoe UI Emoji" font-size="7.916882078859817px" fill="#000000" text-anchor="start" style="white-space: pre;" direction="ltr">Credential</text><text x="0" y="26.84007043013217" font-family="Cascadia, Segoe UI Emoji" font-size="7.916882078859817px" fill="#000000" text-anchor="start" style="white-space: pre;" direction="ltr">NotFound</text><text x="0" y="36.453427240176225" font-family="Cascadia, Segoe UI Emoji" font-size="7.916882078859817px" fill="#000000" text-anchor="start" style="white-space: pre;" direction="ltr">Handler</text></g><g stroke-linecap="round" transform="translate(601.296675005749 326.10979157733004) rotate(0 52.590716666711614 14.702781003596783)"><path d="M1.64 -1.47 C34 1.2, 66.29 1.73, 103.3 0.96 M-0.34 0.26 C29.25 -0.15, 58.85 -0.14, 105.29 0.72 M105.65 -1.48 C104 12.81, 106.36 22.58, 106.31 29.44 M105.82 -0.85 C105.14 7.66, 104.63 13.68, 105.57 28.59 M105.64 27.73 C71.93 29.11, 38.22 29.65, 1.05 28.09 M106.17 29.36 C81.22 30.33, 54.93 29.88, -0.05 29.25 M-0.57 29.48 C1.42 22.83, 1.96 15.4, 1.23 -0.2 M-0.5 29.75 C0.37 22.94, -0.49 14.21, -0.83 -0.39" stroke="#000000" stroke-width="1" fill="none"></path></g><g transform="translate(606.296675005749 336.3125725809268) rotate(0 47.590716666711614 4.5)"><text x="47.590716666711565" y="7" font-family="Helvetica, Segoe UI Emoji" font-size="7.362099815844877px" fill="#000000" text-anchor="middle" style="white-space: pre;" direction="ltr">CachedCredentialNotFound</text></g><g transform="translate(603.2758955254637 360.22778339336884) rotate(0 48.77364852154699 19.226713620088105)"><text x="0" y="7.613356810044056" font-family="Cascadia, Segoe UI Emoji" font-size="7.916882078859801px" fill="#000000" text-anchor="start" style="white-space: pre;" direction="ltr">{</text><text x="0" y="17.226713620088113" font-family="Cascadia, Segoe UI Emoji" font-size="7.916882078859801px" fill="#000000" text-anchor="start" style="white-space: pre;" direction="ltr">    email: string;</text><text x="0" y="26.84007043013217" font-family="Cascadia, Segoe UI Emoji" font-size="7.916882078859801px" fill="#000000" text-anchor="start" style="white-space: pre;" direction="ltr">    password: string;</text><text x="0" y="36.453427240176225" font-family="Cascadia, Segoe UI Emoji" font-size="7.916882078859801px" fill="#000000" text-anchor="start" style="white-space: pre;" direction="ltr">}</text></g><g stroke-linecap="round" transform="translate(979.0921727808609 420.1698905618786) rotate(0 64.46603978500127 15.268272580658206)"><path d="M0.89 -1.77 C48.35 0.41, 94.87 -0.52, 129.78 -1.77 M-0.63 -0.7 C26.62 0.05, 52.27 -1.04, 128.69 0.32 M127.69 1.56 C130.01 10.43, 131.09 20.81, 130.6 30.12 M128.75 0.09 C128.31 12.45, 128.67 24.1, 128.38 31.43 M130.49 31.54 C99.94 30.41, 75.12 30.92, 0.9 29.46 M128.92 30.17 C102.06 31, 77.23 30.31, -0.84 29.86 M1.03 31.27 C-0.41 21.69, -1.43 15.42, -0.49 0.92 M0.66 30.32 C0.04 18.41, -0.39 6.82, 0.68 -0.43" stroke="#000000" stroke-width="1" fill="none"></path></g><g transform="translate(984.0921727808609 430.93816314253684) rotate(0 59.46603978500127 4.5)"><text x="59.466039785001286" y="7" font-family="Helvetica, Segoe UI Emoji" font-size="7.466587955067428px" fill="#000000" text-anchor="middle" style="white-space: pre;" direction="ltr">ValidCachedCredentialNotFound</text></g><g transform="translate(1026.5511653585565 556.4073477379328) rotate(0 53.81112401438713 13.5)"><text x="53.81112401438716" y="7" font-family="Cascadia, Segoe UI Emoji" font-size="7.422224001984435px" fill="#000000" text-anchor="middle" style="white-space: pre;" direction="ltr">ValidCached</text><text x="53.81112401438716" y="16" font-family="Cascadia, Segoe UI Emoji" font-size="7.422224001984435px" fill="#000000" text-anchor="middle" style="white-space: pre;" direction="ltr">Credential</text><text x="53.81112401438716" y="25" font-family="Cascadia, Segoe UI Emoji" font-size="7.422224001984435px" fill="#000000" text-anchor="middle" style="white-space: pre;" direction="ltr">NotFound</text></g><g stroke-linecap="round"><g transform="translate(1142.9943317215802 568.4422803311865) rotate(0 115.49972952025058 0.22594749892171428)"><path d="M0 0 C38.5 0.08, 192.5 0.38, 231 0.45" stroke="#000000" stroke-width="1.5" fill="none" stroke-dasharray="1.5 7"></path></g><g transform="translate(1142.9943317215802 568.4422803311865) rotate(0 115.49972952025058 0.22594749892171428)"><path d="M202.79 10.66 C209.82 8.12, 216.84 5.57, 231 0.45" stroke="#000000" stroke-width="1.5" fill="none" stroke-dasharray="1.5 5"></path></g><g transform="translate(1142.9943317215802 568.4422803311865) rotate(0 115.49972952025058 0.22594749892171428)"><path d="M202.83 -9.86 C209.85 -7.29, 216.86 -4.72, 231 0.45" stroke="#000000" stroke-width="1.5" fill="none" stroke-dasharray="1.5 5"></path></g></g><g stroke-linecap="round" transform="translate(803.0357951224107 936.8406948036584) rotate(0 52.590716666711614 14.702781003596783)"><path d="M-1.82 -0.91 C28.82 2.48, 58.2 2.14, 106.74 -1.17 M-0.33 -0.76 C38.42 -0.28, 77.1 -0.08, 105.61 0.45 M106.73 -0.65 C104.96 9.37, 105 22.75, 104.22 27.91 M105.76 0.83 C105.87 7.25, 105.38 14.86, 105.54 29.74 M103.85 29.55 C82.52 28.43, 59.7 26.7, -0.35 30.03 M105.77 30.4 C83.51 30.01, 61.22 29.5, -0.89 28.76 M0.61 29.55 C-1.05 19.6, 0.23 5.52, 1.46 -0.91 M-0.5 28.94 C-0.92 18.01, -0.21 7.22, -0.65 -0.66" stroke="#000000" stroke-width="1" fill="none"></path></g><g transform="translate(808.0357951224107 947.0434758072552) rotate(0 47.590716666711614 4.5)"><text x="47.590716666711565" y="7" font-family="Helvetica, Segoe UI Emoji" font-size="7.362099815844877px" fill="#000000" text-anchor="middle" style="white-space: pre;" direction="ltr">CredentialsSaved</text></g><g transform="translate(732.0243023057342 1274.8643963944598) rotate(0 46.176987724057994 13.5)"><text x="46.176987724058044" y="7" font-family="Cascadia, Segoe UI Emoji" font-size="7.346338956100147px" fill="#000000" text-anchor="middle" style="white-space: pre;" direction="ltr">Credentials</text><text x="46.176987724058044" y="16" font-family="Cascadia, Segoe UI Emoji" font-size="7.346338956100147px" fill="#000000" text-anchor="middle" style="white-space: pre;" direction="ltr">Saved</text><text x="46.176987724058044" y="25" font-family="Cascadia, Segoe UI Emoji" font-size="7.346338956100147px" fill="#000000" text-anchor="middle" style="white-space: pre;" direction="ltr">Handler</text></g><g transform="translate(806.6172417771295 979.2996873813535) rotate(0 51.035614829792735 33.6467488351542)"><text x="0" y="7.613356810044056" font-family="Cascadia, Segoe UI Emoji" font-size="7.916882078859812px" fill="#000000" text-anchor="start" style="white-space: pre;" direction="ltr">{</text><text x="0" y="17.226713620088113" font-family="Cascadia, Segoe UI Emoji" font-size="7.916882078859812px" fill="#000000" text-anchor="start" style="white-space: pre;" direction="ltr">    email: string;</text><text x="0" y="26.84007043013217" font-family="Cascadia, Segoe UI Emoji" font-size="7.916882078859812px" fill="#000000" text-anchor="start" style="white-space: pre;" direction="ltr">    password: atring;</text><text x="0" y="36.453427240176225" font-family="Cascadia, Segoe UI Emoji" font-size="7.916882078859812px" fill="#000000" text-anchor="start" style="white-space: pre;" direction="ltr">    expire: Timestamp;</text><text x="0" y="46.06678405022028" font-family="Cascadia, Segoe UI Emoji" font-size="7.916882078859812px" fill="#000000" text-anchor="start" style="white-space: pre;" direction="ltr">    token: string;</text><text x="0" y="55.68014086026434" font-family="Cascadia, Segoe UI Emoji" font-size="7.916882078859812px" fill="#000000" text-anchor="start" style="white-space: pre;" direction="ltr">    _id: string;</text><text x="0" y="65.2934976703084" font-family="Cascadia, Segoe UI Emoji" font-size="7.916882078859812px" fill="#000000" text-anchor="start" style="white-space: pre;" direction="ltr">}</text></g><g stroke-linecap="round" transform="translate(270.43697812673236 696.8837689372649) rotate(0 58.81112401438713 46.370309319036025)"><path d="M59 0 C81.47 18.01, 103.94 36.03, 117.62 47 M59 0 C78.39 15.54, 97.78 31.09, 117.62 47 M117.62 47 C97.9 62.39, 78.18 77.78, 59 92.74 M117.62 47 C101.19 59.82, 84.76 72.64, 59 92.74 M59 92.74 C43.76 80.93, 28.53 69.12, 0 47 M59 92.74 C37.12 75.77, 15.23 58.81, 0 47 M0 47 C15.82 34.4, 31.64 21.8, 59 0 M0 47 C18.95 31.91, 37.9 16.81, 59 0" stroke="#000000" stroke-width="2" fill="none"></path></g><g transform="translate(275.43697812673236 729.754078256301) rotate(0 53.81112401438713 13.5)"><text x="53.81112401438716" y="7" font-family="Cascadia, Segoe UI Emoji" font-size="7.422224001984435px" fill="#000000" text-anchor="middle" style="white-space: pre;" direction="ltr">Requested</text><text x="53.81112401438716" y="16" font-family="Cascadia, Segoe UI Emoji" font-size="7.422224001984435px" fill="#000000" text-anchor="middle" style="white-space: pre;" direction="ltr">JsonWebToken</text><text x="53.81112401438716" y="25" font-family="Cascadia, Segoe UI Emoji" font-size="7.422224001984435px" fill="#000000" text-anchor="middle" style="white-space: pre;" direction="ltr">Handler</text></g><g stroke-linecap="round"><g transform="translate(488.2752483007598 405.2564419048624) rotate(0 -72.25428732576927 150.51690882905686)"><path d="M0 0 C-24.08 50.17, -120.42 250.86, -144.51 301.03 M0 0 C-24.08 50.17, -120.42 250.86, -144.51 301.03" stroke="#000000" stroke-width="2" fill="none"></path></g><g transform="translate(488.2752483007598 405.2564419048624) rotate(0 -72.25428732576927 150.51690882905686)"><path d="M-141.56 271.18 C-142.22 277.85, -142.88 284.52, -144.51 301.03 M-141.56 271.18 C-142.22 277.89, -142.88 284.6, -144.51 301.03" stroke="#000000" stroke-width="2" fill="none"></path></g><g transform="translate(488.2752483007598 405.2564419048624) rotate(0 -72.25428732576927 150.51690882905686)"><path d="M-123.06 280.06 C-127.85 284.74, -132.64 289.43, -144.51 301.03 M-123.06 280.06 C-127.88 284.77, -132.7 289.49, -144.51 301.03" stroke="#000000" stroke-width="2" fill="none"></path></g></g><g stroke-linecap="round" transform="translate(471.28073657970936 479.73500334568035) rotate(0 52.590716666711614 14.70278100359679)"><path d="M1.94 0.98 C21.57 2.54, 45.27 -0.26, 103.89 1.32 M0.31 -0.85 C34.73 -0.41, 69.29 -0.64, 104.46 0.7 M105.51 1.22 C104.21 11.76, 103.5 20.46, 105.55 29.27 M106.03 0.32 C104.08 7.85, 105.05 14.5, 104.18 29.68 M105.14 27.77 C65.96 28.27, 24.97 29.95, -1.43 29.46 M106.14 28.88 C73.32 30.48, 43.74 29.6, -0.83 30.28 M0.96 30.2 C-1 20.28, 0.41 13.17, -0.05 -2 M-0.97 29.84 C-1.24 20.05, -0.88 9.99, -0.7 0.09" stroke="#000000" stroke-width="1" fill="none"></path></g><g transform="translate(476.28073657970936 489.9377843492772) rotate(0 47.590716666711614 4.5)"><text x="47.590716666711565" y="7" font-family="Helvetica, Segoe UI Emoji" font-size="7.362099815844877px" fill="#000000" text-anchor="middle" style="white-space: pre;" direction="ltr">RequestedJsonWebToken</text></g><g transform="translate(471.0922393873577 515.5965941909923) rotate(0 48.77364852154699 24.033392025110142)"><text x="0" y="7.613356810044056" font-family="Cascadia, Segoe UI Emoji" font-size="7.916882078859801px" fill="#000000" text-anchor="start" style="white-space: pre;" direction="ltr">{</text><text x="0" y="17.226713620088113" font-family="Cascadia, Segoe UI Emoji" font-size="7.916882078859801px" fill="#000000" text-anchor="start" style="white-space: pre;" direction="ltr">    email: string;</text><text x="0" y="26.84007043013217" font-family="Cascadia, Segoe UI Emoji" font-size="7.916882078859801px" fill="#000000" text-anchor="start" style="white-space: pre;" direction="ltr">    password: string;</text><text x="0" y="36.453427240176225" font-family="Cascadia, Segoe UI Emoji" font-size="7.916882078859801px" fill="#000000" text-anchor="start" style="white-space: pre;" direction="ltr">    validity: number;</text><text x="0" y="46.06678405022028" font-family="Cascadia, Segoe UI Emoji" font-size="7.916882078859801px" fill="#000000" text-anchor="start" style="white-space: pre;" direction="ltr">}</text></g><g transform="translate(474.3909402535469 578.7431536295168) rotate(0 37.32244408605334 4.806678405022028)"><text x="0" y="7.613356810044056" font-family="Cascadia, Segoe UI Emoji" font-size="7.916882078859811px" fill="#000000" text-anchor="start" style="white-space: pre;" direction="ltr">Promise&lt;Reponse&gt;</text></g><g stroke-linecap="round" transform="translate(606.9044664782721 695.4700399946104) rotate(0 58.81112401438713 46.370309319036025)"><path d="M59 0 C73.55 11.67, 88.11 23.34, 117.62 47 M59 0 C73.65 11.75, 88.3 23.49, 117.62 47 M117.62 47 C98.57 61.86, 79.53 76.72, 59 92.74 M117.62 47 C102.48 58.81, 87.34 70.63, 59 92.74 M59 92.74 C38.8 77.08, 18.6 61.42, 0 47 M59 92.74 C39.85 77.89, 20.7 63.05, 0 47 M0 47 C18.7 32.1, 37.4 17.2, 59 0 M0 47 C18.91 31.94, 37.81 16.88, 59 0" stroke="#000000" stroke-width="2" fill="none"></path></g><g transform="translate(611.9044664782721 732.8403493136464) rotate(0 53.81112401438713 9)"><text x="53.81112401438716" y="7" font-family="Cascadia, Segoe UI Emoji" font-size="7.422224001984435px" fill="#000000" text-anchor="middle" style="white-space: pre;" direction="ltr">UserAuthorized</text><text x="53.81112401438716" y="16" font-family="Cascadia, Segoe UI Emoji" font-size="7.422224001984435px" fill="#000000" text-anchor="middle" style="white-space: pre;" direction="ltr">Handler</text></g><g stroke-linecap="round" transform="translate(231.3238107133152 850.9802236865006) rotate(0 58.81112401438713 46.37030931903604)"><path d="M59 0 C82.07 18.5, 105.15 37, 117.62 47 M59 0 C71.33 9.88, 83.66 19.77, 117.62 47 M117.62 47 C104.08 57.56, 90.54 68.13, 59 92.74 M117.62 47 C99.7 60.99, 81.77 74.97, 59 92.74 M59 92.74 C44.26 81.32, 29.53 69.89, 0 47 M59 92.74 C37.77 76.28, 16.53 59.82, 0 47 M0 47 C16.02 34.23, 32.05 21.47, 59 0 M0 47 C22.53 29.05, 45.06 11.1, 59 0" stroke="#000000" stroke-width="2" fill="none"></path></g><g transform="translate(236.3238107133152 888.3505330055366) rotate(0 53.81112401438713 9)"><text x="53.81112401438716" y="7" font-family="Cascadia, Segoe UI Emoji" font-size="7.422224001984435px" fill="#000000" text-anchor="middle" style="white-space: pre;" direction="ltr">UseNotFound</text><text x="53.81112401438716" y="16" font-family="Cascadia, Segoe UI Emoji" font-size="7.422224001984435px" fill="#000000" text-anchor="middle" style="white-space: pre;" direction="ltr">Handler</text></g><g stroke-linecap="round" transform="translate(111.62809356865046 744.4793100066003) rotate(0 58.81112401438713 46.370309319036025)"><path d="M59 0 C81.72 18.21, 104.44 36.43, 117.62 47 M59 0 C76.57 14.09, 94.14 28.17, 117.62 47 M117.62 47 C95.95 63.91, 74.27 80.83, 59 92.74 M117.62 47 C97.27 62.88, 76.92 78.76, 59 92.74 M59 92.74 C43.63 80.82, 28.26 68.91, 0 47 M59 92.74 C40.81 78.64, 22.62 64.53, 0 47 M0 47 C20.89 30.36, 41.79 13.71, 59 0 M0 47 C19.28 31.64, 38.56 16.29, 59 0" stroke="#000000" stroke-width="2" fill="none"></path></g><g transform="translate(116.62809356865046 781.8496193256362) rotate(0 53.81112401438713 9)"><text x="53.81112401438716" y="7" font-family="Cascadia, Segoe UI Emoji" font-size="7.422224001984435px" fill="#000000" text-anchor="middle" style="white-space: pre;" direction="ltr">InternalServerError</text><text x="53.81112401438716" y="16" font-family="Cascadia, Segoe UI Emoji" font-size="7.422224001984435px" fill="#000000" text-anchor="middle" style="white-space: pre;" direction="ltr">Handler</text></g><g stroke-linecap="round"><g transform="translate(776.4555664776399 294.08180731930236) rotate(0 0.4269709954122618 475.9454306017304)"><path d="M0 0 C0.14 158.65, 0.71 793.24, 0.85 951.89 M0 0 C0.14 158.65, 0.71 793.24, 0.85 951.89" stroke="#000000" stroke-width="4" fill="none"></path></g><g transform="translate(776.4555664776399 294.08180731930236) rotate(0 0.4269709954122618 475.9454306017304)"><path d="M-9.43 923.71 C-6.13 932.76, -2.83 941.8, 0.85 951.89 M-9.43 923.71 C-6.88 930.71, -4.32 937.7, 0.85 951.89" stroke="#000000" stroke-width="4" fill="none"></path></g><g transform="translate(776.4555664776399 294.08180731930236) rotate(0 0.4269709954122618 475.9454306017304)"><path d="M11.09 923.69 C7.8 932.74, 4.52 941.8, 0.85 951.89 M11.09 923.69 C8.55 930.69, 6.01 937.69, 0.85 951.89" stroke="#000000" stroke-width="4" fill="none"></path></g></g><g stroke-linecap="round"><g transform="translate(390.6825827142902 742.6853155440297) rotate(0 107.13518294155188 -0.03364808391326335)"><path d="M0 0 C35.71 -0.01, 178.56 -0.06, 214.27 -0.07 M0 0 C35.71 -0.01, 178.56 -0.06, 214.27 -0.07" stroke="#000000" stroke-width="2" fill="none"></path></g><g transform="translate(390.6825827142902 742.6853155440297) rotate(0 107.13518294155188 -0.03364808391326335)"><path d="M186.08 10.2 C194.42 7.17, 202.75 4.13, 214.27 -0.07 M186.08 10.2 C191.82 8.11, 197.56 6.02, 214.27 -0.07" stroke="#000000" stroke-width="2" fill="none"></path></g><g transform="translate(390.6825827142902 742.6853155440297) rotate(0 107.13518294155188 -0.03364808391326335)"><path d="M186.08 -10.32 C194.41 -7.29, 202.75 -4.26, 214.27 -0.07 M186.08 -10.32 C191.82 -8.23, 197.56 -6.14, 214.27 -0.07" stroke="#000000" stroke-width="2" fill="none"></path></g></g><g stroke-linecap="round"><g transform="translate(319.14439750624365 787.2875462233291) rotate(0 -11.800139063784513 30.620293282145497)"><path d="M0 0 C-3.93 10.21, -19.67 51.03, -23.6 61.24 M0 0 C-3.93 10.21, -19.67 51.03, -23.6 61.24" stroke="#000000" stroke-width="2" fill="none"></path></g><g transform="translate(319.14439750624365 787.2875462233291) rotate(0 -11.800139063784513 30.620293282145497)"><path d="M-23.04 31.25 C-23.24 41.87, -23.44 52.5, -23.6 61.24 M-23.04 31.25 C-23.23 41.36, -23.42 51.47, -23.6 61.24" stroke="#000000" stroke-width="2" fill="none"></path></g><g transform="translate(319.14439750624365 787.2875462233291) rotate(0 -11.800139063784513 30.620293282145497)"><path d="M-3.89 38.63 C-10.87 46.64, -17.85 54.65, -23.6 61.24 M-3.89 38.63 C-10.53 46.25, -17.18 53.87, -23.6 61.24" stroke="#000000" stroke-width="2" fill="none"></path></g></g><g stroke-linecap="round"><g transform="translate(282.3027568402815 756.9343489819463) rotate(0 -33.578378431223086 10.0777893791834)"><path d="M0 0 C-11.19 3.36, -55.96 16.8, -67.16 20.16 M0 0 C-11.19 3.36, -55.96 16.8, -67.16 20.16" stroke="#000000" stroke-width="2" fill="none"></path></g><g transform="translate(282.3027568402815 756.9343489819463) rotate(0 -33.578378431223086 10.0777893791834)"><path d="M-43.11 2.22 C-49.63 7.09, -56.15 11.95, -67.16 20.16 M-43.11 2.22 C-48.99 6.61, -54.88 11, -67.16 20.16" stroke="#000000" stroke-width="2" fill="none"></path></g><g transform="translate(282.3027568402815 756.9343489819463) rotate(0 -33.578378431223086 10.0777893791834)"><path d="M-37.21 21.88 C-45.33 21.41, -53.45 20.94, -67.16 20.16 M-37.21 21.88 C-44.54 21.46, -51.86 21.04, -67.16 20.16" stroke="#000000" stroke-width="2" fill="none"></path></g></g><g stroke-linecap="round" transform="translate(473.16570850325 618.7516827066124) rotate(0 52.590716666711614 14.70278100359679)"><path d="M-1.27 -0.67 C23.02 1.71, 48.5 1.31, 103.37 -0.43 M-0.37 -0.92 C41.26 -0.68, 83.47 -0.88, 105.3 0.85 M103.67 0.52 C105.7 4.64, 106.68 13.96, 107.09 31.39 M105.83 0.08 C105.76 10.05, 104.51 18.35, 105.67 29.94 M103.76 28.8 C67.33 29.91, 31.09 30.46, 0.68 27.78 M104.77 28.44 C77.11 29.32, 49.7 29.9, 0.45 30.35 M1.02 30.78 C0.89 23.2, -0.79 18.6, 1.06 -0.08 M0.38 30.16 C0.74 21.95, 0.11 15.12, 0.04 -0.38" stroke="#000000" stroke-width="1" fill="none"></path></g><g transform="translate(478.16570850325 628.9544637102093) rotate(0 47.590716666711614 4.5)"><text x="47.590716666711565" y="7" font-family="Helvetica, Segoe UI Emoji" font-size="7.362099815844877px" fill="#000000" text-anchor="middle" style="white-space: pre;" direction="ltr">UserAuthorized</text></g><g stroke-linecap="round"><g transform="translate(726.0778295675136 742.2140462090343) rotate(0 237.7205150954186 0.645022732711098)"><path d="M0 0 C79.24 0.22, 396.2 1.08, 475.44 1.29 M0 0 C79.24 0.22, 396.2 1.08, 475.44 1.29" stroke="#000000" stroke-width="2" fill="none"></path></g><g transform="translate(726.0778295675136 742.2140462090343) rotate(0 237.7205150954186 0.645022732711098)"><path d="M447.22 11.47 C456.52 8.12, 465.82 4.76, 475.44 1.29 M447.22 11.47 C456.05 8.29, 464.87 5.1, 475.44 1.29" stroke="#000000" stroke-width="2" fill="none"></path></g><g transform="translate(726.0778295675136 742.2140462090343) rotate(0 237.7205150954186 0.645022732711098)"><path d="M447.28 -9.05 C456.56 -5.64, 465.83 -2.24, 475.44 1.29 M447.28 -9.05 C456.09 -5.81, 464.89 -2.58, 475.44 1.29" stroke="#000000" stroke-width="2" fill="none"></path></g></g><g stroke-linecap="round" transform="translate(815.5708584139354 695.4229156965224) rotate(0 23.185154659518048 16.257882840515677)"><path d="M46.37 16.26 C46.37 17.2, 46.25 18.15, 46.02 19.08 C45.79 20.01, 45.43 20.93, 44.97 21.82 C44.51 22.7, 43.94 23.57, 43.26 24.39 C42.59 25.2, 41.81 25.99, 40.95 26.71 C40.08 27.43, 39.12 28.11, 38.09 28.71 C37.06 29.32, 35.94 29.87, 34.78 30.34 C33.62 30.81, 32.38 31.21, 31.11 31.54 C29.85 31.86, 28.53 32.11, 27.21 32.27 C25.89 32.43, 24.53 32.52, 23.19 32.52 C21.84 32.52, 20.48 32.43, 19.16 32.27 C17.84 32.11, 16.52 31.86, 15.26 31.54 C13.99 31.21, 12.75 30.81, 11.59 30.34 C10.43 29.87, 9.31 29.32, 8.28 28.71 C7.25 28.11, 6.29 27.43, 5.42 26.71 C4.56 25.99, 3.78 25.2, 3.11 24.39 C2.44 23.57, 1.86 22.7, 1.4 21.82 C0.94 20.93, 0.59 20.01, 0.35 19.08 C0.12 18.15, 0 17.2, 0 16.26 C0 15.32, 0.12 14.36, 0.35 13.43 C0.59 12.51, 0.94 11.58, 1.4 10.7 C1.86 9.81, 2.44 8.94, 3.11 8.13 C3.78 7.31, 4.56 6.53, 5.42 5.81 C6.29 5.09, 7.25 4.41, 8.28 3.8 C9.31 3.2, 10.43 2.65, 11.59 2.18 C12.75 1.71, 13.99 1.3, 15.26 0.98 C16.52 0.66, 17.84 0.41, 19.16 0.25 C20.48 0.08, 21.84 0, 23.19 0 C24.53 0, 25.89 0.08, 27.21 0.25 C28.53 0.41, 29.85 0.66, 31.11 0.98 C32.38 1.3, 33.62 1.71, 34.78 2.18 C35.94 2.65, 37.06 3.2, 38.09 3.8 C39.12 4.41, 40.08 5.09, 40.95 5.81 C41.81 6.53, 42.59 7.31, 43.26 8.13 C43.94 8.94, 44.51 9.81, 44.97 10.7 C45.43 11.58, 45.79 12.51, 46.02 13.43 C46.25 14.36, 46.31 15.79, 46.37 16.26 C46.43 16.73, 46.43 15.79, 46.37 16.26" stroke="#1864ab" stroke-width="2" fill="none"></path></g><g transform="translate(820.5708584139354 706.6807985370381) rotate(0 18.185154659518048 5)"><text x="18.185154659518012" y="8" font-family="Cascadia, Segoe UI Emoji" font-size="8.502150230424007px" fill="#1864ab" text-anchor="middle" style="white-space: pre;" direction="ltr">SAVE</text></g><g transform="translate(1207.4515192970275 720.421960936093) rotate(0 43.42122335709843 6.391002572040463)"><text x="0" y="10.782005144080918" font-family="Cascadia, Segoe UI Emoji" font-size="10.526357177478406px" fill="#000000" text-anchor="start" style="white-space: pre;" direction="ltr">IndexDBAdapter</text></g><g stroke-linecap="round" transform="translate(1220.9227502086817 746.0486281122156) rotate(0 26.879804935346613 22.93242099379225)"><path d="M53.76 22.93 C53.76 24.26, 53.62 25.61, 53.35 26.91 C53.08 28.22, 52.67 29.53, 52.14 30.78 C51.61 32.02, 50.94 33.25, 50.16 34.4 C49.38 35.55, 48.47 36.66, 47.47 37.67 C46.47 38.69, 45.35 39.65, 44.16 40.5 C42.97 41.35, 41.67 42.13, 40.32 42.79 C38.97 43.46, 37.54 44.03, 36.07 44.48 C34.61 44.94, 33.08 45.29, 31.55 45.52 C30.02 45.75, 28.44 45.86, 26.88 45.86 C25.32 45.86, 23.74 45.75, 22.21 45.52 C20.68 45.29, 19.15 44.94, 17.69 44.48 C16.22 44.03, 14.79 43.46, 13.44 42.79 C12.09 42.13, 10.79 41.35, 9.6 40.5 C8.41 39.65, 7.29 38.69, 6.29 37.67 C5.29 36.66, 4.38 35.55, 3.6 34.4 C2.82 33.25, 2.15 32.02, 1.62 30.78 C1.09 29.53, 0.68 28.22, 0.41 26.91 C0.14 25.61, 0 24.26, 0 22.93 C0 21.61, 0.14 20.26, 0.41 18.95 C0.68 17.64, 1.09 16.34, 1.62 15.09 C2.15 13.84, 2.82 12.62, 3.6 11.47 C4.38 10.32, 5.29 9.21, 6.29 8.19 C7.29 7.17, 8.41 6.22, 9.6 5.37 C10.79 4.51, 12.09 3.74, 13.44 3.07 C14.79 2.41, 16.22 1.84, 17.69 1.38 C19.15 0.93, 20.68 0.58, 22.21 0.35 C23.74 0.12, 25.32 0, 26.88 0 C28.44 0, 30.02 0.12, 31.55 0.35 C33.08 0.58, 34.61 0.93, 36.07 1.38 C37.54 1.84, 38.97 2.41, 40.32 3.07 C41.67 3.74, 42.97 4.51, 44.16 5.37 C45.35 6.22, 46.47 7.17, 47.47 8.19 C48.47 9.21, 49.38 10.32, 50.16 11.47 C50.94 12.62, 51.61 13.84, 52.14 15.09 C52.67 16.34, 53.08 17.64, 53.35 18.95 C53.62 20.26, 53.69 22.27, 53.76 22.93 C53.83 23.6, 53.83 22.27, 53.76 22.93" stroke="#1864ab" stroke-width="2" fill="none"></path></g><g transform="translate(1222.8024568475162 762.5900465339685) rotate(0 25.000098296511226 6.391002572040463)"><text x="25.0000982965112" y="10.782005144080918" font-family="Cascadia, Segoe UI Emoji" font-size="10.526357177478394px" fill="#1864ab" text-anchor="middle" style="white-space: pre;" direction="ltr">onerror</text></g><g stroke-linecap="round" transform="translate(1217.4766213708162 809.3320849530087) rotate(0 30.827188876901005 26.12792227981248)"><path d="M61.65 26.13 C61.65 27.64, 61.5 29.18, 61.19 30.66 C60.88 32.15, 60.41 33.64, 59.8 35.06 C59.18 36.49, 58.42 37.88, 57.52 39.19 C56.63 40.5, 55.59 41.76, 54.44 42.92 C53.3 44.08, 52.01 45.17, 50.64 46.14 C49.28 47.12, 47.79 48, 46.24 48.76 C44.7 49.51, 43.05 50.16, 41.37 50.68 C39.69 51.2, 37.94 51.6, 36.18 51.86 C34.42 52.12, 32.61 52.26, 30.83 52.26 C29.04 52.26, 27.23 52.12, 25.47 51.86 C23.72 51.6, 21.96 51.2, 20.28 50.68 C18.61 50.16, 16.96 49.51, 15.41 48.76 C13.87 48, 12.38 47.12, 11.01 46.14 C9.64 45.17, 8.36 44.08, 7.21 42.92 C6.07 41.76, 5.02 40.5, 4.13 39.19 C3.24 37.88, 2.47 36.49, 1.86 35.06 C1.25 33.64, 0.78 32.15, 0.47 30.66 C0.16 29.18, 0 27.64, 0 26.13 C0 24.62, 0.16 23.08, 0.47 21.59 C0.78 20.1, 1.25 18.61, 1.86 17.19 C2.47 15.77, 3.24 14.37, 4.13 13.06 C5.02 11.75, 6.07 10.49, 7.21 9.33 C8.36 8.17, 9.64 7.08, 11.01 6.11 C12.38 5.14, 13.87 4.26, 15.41 3.5 C16.96 2.74, 18.61 2.09, 20.28 1.58 C21.96 1.06, 23.72 0.66, 25.47 0.4 C27.23 0.13, 29.04 0, 30.83 0 C32.61 0, 34.42 0.13, 36.18 0.4 C37.94 0.66, 39.69 1.06, 41.37 1.58 C43.05 2.09, 44.7 2.74, 46.24 3.5 C47.79 4.26, 49.28 5.14, 50.64 6.11 C52.01 7.08, 53.3 8.17, 54.44 9.33 C55.59 10.49, 56.63 11.75, 57.52 13.06 C58.42 14.37, 59.18 15.77, 59.8 17.19 C60.41 18.61, 60.88 20.1, 61.19 21.59 C61.5 23.08, 61.58 25.37, 61.65 26.13 C61.73 26.88, 61.73 25.37, 61.65 26.13" stroke="#1864ab" stroke-width="2" fill="none"></path></g><g transform="translate(1219.356328009653 829.0690046607808) rotate(0 28.947482238065618 6.391002572040463)"><text x="28.947482238065604" y="10.782005144080918" font-family="Cascadia, Segoe UI Emoji" font-size="10.526357177478408px" fill="#1864ab" text-anchor="middle" style="white-space: pre;" direction="ltr">onsuccess</text></g><g stroke-linecap="round" transform="translate(1202.7522526999396 706.2615042568661) rotate(0 47.7758770704005 84.11687208788533)"><path d="M23.89 0 M23.89 0 C42.69 0, 61.49 0, 71.66 0 M71.66 0 C87.59 0, 95.55 7.96, 95.55 23.89 M95.55 23.89 C95.55 51.82, 95.55 79.76, 95.55 144.35 M95.55 144.35 C95.55 160.27, 87.59 168.23, 71.66 168.23 M71.66 168.23 C58.19 168.23, 44.71 168.23, 23.89 168.23 M23.89 168.23 C7.96 168.23, 0 160.27, 0 144.35 M0 144.35 C0 119.23, 0 94.11, 0 23.89 M0 23.89 C0 7.96, 7.96 0, 23.89 0" stroke="#1864ab" stroke-width="2.5" fill="none" stroke-dasharray="8 10"></path></g><g stroke-linecap="round"><g transform="translate(1221.3110649555001 851.6399638597375) rotate(0 -204.04821072299376 201.69199581857129)"><path d="M0 0 C-68.02 67.23, -340.08 336.15, -408.1 403.38 M0 0 C-68.02 67.23, -340.08 336.15, -408.1 403.38" stroke="#000000" stroke-width="4" fill="none"></path></g><g transform="translate(1221.3110649555001 851.6399638597375) rotate(0 -204.04821072299376 201.69199581857129)"><path d="M-395.26 376.27 C-399.14 384.46, -403.01 392.64, -408.1 403.38 M-395.26 376.27 C-398.65 383.43, -402.04 390.6, -408.1 403.38" stroke="#000000" stroke-width="4" fill="none"></path></g><g transform="translate(1221.3110649555001 851.6399638597375) rotate(0 -204.04821072299376 201.69199581857129)"><path d="M-380.83 390.86 C-389.07 394.64, -397.3 398.43, -408.1 403.38 M-380.83 390.86 C-388.04 394.17, -395.24 397.48, -408.1 403.38" stroke="#000000" stroke-width="4" fill="none"></path></g></g><g stroke-linecap="round"><g transform="translate(118.15903527237606 807.9561059325374) rotate(0 -54.07951763618803 13.528592426156493)"><path d="M0 0 C-18.03 4.51, -90.13 22.55, -108.16 27.06" stroke="#000000" stroke-width="1.5" fill="none" stroke-dasharray="1.5 7"></path></g><g transform="translate(118.15903527237606 807.9561059325374) rotate(0 -54.07951763618803 13.528592426156493)"><path d="M-83.3 10.26 C-89.97 14.77, -96.65 19.28, -108.16 27.06" stroke="#000000" stroke-width="1.5" fill="none" stroke-dasharray="1.5 5"></path></g><g transform="translate(118.15903527237606 807.9561059325374) rotate(0 -54.07951763618803 13.528592426156493)"><path d="M-78.32 30.17 C-86.33 29.33, -94.34 28.5, -108.16 27.06" stroke="#000000" stroke-width="1.5" fill="none" stroke-dasharray="1.5 5"></path></g></g><g stroke-linecap="round"><g transform="translate(592.5491109702111 896.7738187656389) rotate(0 -445.18901837599196 -0.774356286955225)"><path d="M-376.44 -0.65 C-376.44 -0.65, -351.71 -0.61, -376.44 -0.65 C-401.18 -0.7, -500.11 -0.87, -524.84 -0.91" stroke="#000000" stroke-width="1.5" fill="none" stroke-dasharray="1.5 7"></path></g><g transform="translate(592.5491109702111 896.7738187656389) rotate(0 -445.18901837599196 -0.774356286955225)"><path d="M-496.63 -11.12 C-503.66 -8.58, -510.69 -6.03, -524.84 -0.91" stroke="#000000" stroke-width="1.5" fill="none" stroke-dasharray="1.5 5"></path></g><g transform="translate(592.5491109702111 896.7738187656389) rotate(0 -445.18901837599196 -0.774356286955225)"><path d="M-496.67 9.4 C-503.69 6.83, -510.71 4.26, -524.84 -0.91" stroke="#000000" stroke-width="1.5" fill="none" stroke-dasharray="1.5 5"></path></g></g><g stroke-linecap="round" transform="translate(160.26036919593298 694.6218026290198) rotate(0 52.590716666711614 14.702781003596783)"><path d="M1.1 0.38 C24.38 -0.56, 46.42 1.62, 105.45 -1.29 M-0.38 -0.45 C23.79 -0.14, 47 -0.61, 104.7 -0.78 M106.48 1.82 C106.69 9.76, 105.45 15.27, 106.95 29.84 M105.48 0.16 C104.68 8.04, 105.74 15.07, 105.68 30.3 M105.39 31.24 C64.45 27.64, 27.62 28.32, 0.31 28.66 M106.17 30.16 C64.9 28.21, 25.44 29.14, -0.39 28.47 M0.65 28.42 C1.85 18.01, -0.09 5.28, -1.06 -0.74 M-0.84 29.13 C1.14 22.32, 0.42 14.05, -0.17 -0.25" stroke="#000000" stroke-width="1" fill="none"></path></g><g transform="translate(165.26036919593298 704.8245836326166) rotate(0 47.590716666711614 4.5)"><text x="47.590716666711565" y="7" font-family="Helvetica, Segoe UI Emoji" font-size="7.362099815844877px" fill="#000000" text-anchor="middle" style="white-space: pre;" direction="ltr">InternalServerError</text></g><g stroke-linecap="round" transform="translate(317.6555248113609 815.2600057354535) rotate(0 52.590716666711614 14.702781003596783)"><path d="M1.55 1.69 C29.68 -0.55, 57.71 0.87, 104.29 0.52 M0.34 0.71 C34.48 0.31, 70.7 0.33, 104.66 -0.41 M105.8 -0.51 C104.4 6.81, 106.82 17.03, 106.41 27.91 M104.25 -0.23 C104.37 10, 105.25 19.37, 105.04 28.92 M105.38 27.75 C81.45 29.7, 59.68 30.17, 0.21 27.63 M104.91 29.92 C71.14 29.43, 37.48 28.61, 0.02 30.1 M-1.04 30.47 C1.42 19.84, -1.8 14.65, -0.75 0.22 M0.92 29.45 C0.15 18.39, 0.7 9.14, 0.68 0.98" stroke="#000000" stroke-width="1" fill="none"></path></g><g transform="translate(322.6555248113609 825.4627867390503) rotate(0 47.590716666711614 4.5)"><text x="47.590716666711565" y="7" font-family="Helvetica, Segoe UI Emoji" font-size="7.362099815844877px" fill="#000000" text-anchor="middle" style="white-space: pre;" direction="ltr">UserNotFound</text></g><g transform="translate(470.95086649309224 663.4255172944645) rotate(0 51.035614829792735 33.6467488351542)"><text x="0" y="7.613356810044056" font-family="Cascadia, Segoe UI Emoji" font-size="7.916882078859812px" fill="#000000" text-anchor="start" style="white-space: pre;" direction="ltr">{</text><text x="0" y="17.226713620088113" font-family="Cascadia, Segoe UI Emoji" font-size="7.916882078859812px" fill="#000000" text-anchor="start" style="white-space: pre;" direction="ltr">    email: string;</text><text x="0" y="26.84007043013217" font-family="Cascadia, Segoe UI Emoji" font-size="7.916882078859812px" fill="#000000" text-anchor="start" style="white-space: pre;" direction="ltr">    password: atring;</text><text x="0" y="36.453427240176225" font-family="Cascadia, Segoe UI Emoji" font-size="7.916882078859812px" fill="#000000" text-anchor="start" style="white-space: pre;" direction="ltr">    expire: Timestamp;</text><text x="0" y="46.06678405022028" font-family="Cascadia, Segoe UI Emoji" font-size="7.916882078859812px" fill="#000000" text-anchor="start" style="white-space: pre;" direction="ltr">    token: string;</text><text x="0" y="55.68014086026434" font-family="Cascadia, Segoe UI Emoji" font-size="7.916882078859812px" fill="#000000" text-anchor="start" style="white-space: pre;" direction="ltr">    _id: string;</text><text x="0" y="65.2934976703084" font-family="Cascadia, Segoe UI Emoji" font-size="7.916882078859812px" fill="#000000" text-anchor="start" style="white-space: pre;" direction="ltr">}</text></g><g transform="translate(921.4591562186833 657.7706015238502) rotate(0 51.035614829792735 33.6467488351542)"><text x="0" y="7.613356810044056" font-family="Cascadia, Segoe UI Emoji" font-size="7.916882078859812px" fill="#000000" text-anchor="start" style="white-space: pre;" direction="ltr">{</text><text x="0" y="17.226713620088113" font-family="Cascadia, Segoe UI Emoji" font-size="7.916882078859812px" fill="#000000" text-anchor="start" style="white-space: pre;" direction="ltr">    email: string;</text><text x="0" y="26.84007043013217" font-family="Cascadia, Segoe UI Emoji" font-size="7.916882078859812px" fill="#000000" text-anchor="start" style="white-space: pre;" direction="ltr">    password: atring;</text><text x="0" y="36.453427240176225" font-family="Cascadia, Segoe UI Emoji" font-size="7.916882078859812px" fill="#000000" text-anchor="start" style="white-space: pre;" direction="ltr">    expire: Timestamp;</text><text x="0" y="46.06678405022028" font-family="Cascadia, Segoe UI Emoji" font-size="7.916882078859812px" fill="#000000" text-anchor="start" style="white-space: pre;" direction="ltr">    token: string;</text><text x="0" y="55.68014086026434" font-family="Cascadia, Segoe UI Emoji" font-size="7.916882078859812px" fill="#000000" text-anchor="start" style="white-space: pre;" direction="ltr">    _id: string;</text><text x="0" y="65.2934976703084" font-family="Cascadia, Segoe UI Emoji" font-size="7.916882078859812px" fill="#000000" text-anchor="start" style="white-space: pre;" direction="ltr">}</text></g><g stroke-linecap="round" transform="translate(1011.3251926733626 835.9946968943723) rotate(0 52.590716666711614 14.702781003596783)"><path d="M0.58 1.99 C28.97 -0.77, 55.38 -1.31, 104.32 0.78 M0.96 -0.98 C41.29 0.99, 81.64 -0.29, 104.64 -0.69 M103.91 -0.39 C106.22 9.26, 104.01 19.79, 106.07 27.55 M104.42 0.07 C104.93 10.88, 106.28 22.9, 105.8 28.54 M103.44 27.99 C76.16 29.95, 44.15 27.23, -0.46 28.83 M104.88 29.29 C66.01 27.82, 25.74 28.95, 0.36 28.76 M-0.92 29.05 C2.1 23.65, -0.24 16.82, -0.25 -1.62 M-0.86 29.32 C-0.72 21.83, -0.73 16.38, 0.73 -0.72" stroke="#000000" stroke-width="1" fill="none"></path></g><g transform="translate(1016.3251926733626 846.1974778979691) rotate(0 47.590716666711614 4.5)"><text x="47.590716666711565" y="7" font-family="Helvetica, Segoe UI Emoji" font-size="7.362099815844877px" fill="#000000" text-anchor="middle" style="white-space: pre;" direction="ltr">CredentialsSaved</text></g><g transform="translate(1015.7077523955863 877.3698306160331) rotate(0 51.035614829792735 33.6467488351542)"><text x="0" y="7.613356810044056" font-family="Cascadia, Segoe UI Emoji" font-size="7.916882078859812px" fill="#000000" text-anchor="start" style="white-space: pre;" direction="ltr">{</text><text x="0" y="17.226713620088113" font-family="Cascadia, Segoe UI Emoji" font-size="7.916882078859812px" fill="#000000" text-anchor="start" style="white-space: pre;" direction="ltr">    email: string;</text><text x="0" y="26.84007043013217" font-family="Cascadia, Segoe UI Emoji" font-size="7.916882078859812px" fill="#000000" text-anchor="start" style="white-space: pre;" direction="ltr">    password: atring;</text><text x="0" y="36.453427240176225" font-family="Cascadia, Segoe UI Emoji" font-size="7.916882078859812px" fill="#000000" text-anchor="start" style="white-space: pre;" direction="ltr">    expire: Timestamp;</text><text x="0" y="46.06678405022028" font-family="Cascadia, Segoe UI Emoji" font-size="7.916882078859812px" fill="#000000" text-anchor="start" style="white-space: pre;" direction="ltr">    token: string;</text><text x="0" y="55.68014086026434" font-family="Cascadia, Segoe UI Emoji" font-size="7.916882078859812px" fill="#000000" text-anchor="start" style="white-space: pre;" direction="ltr">    _id: string;</text><text x="0" y="65.2934976703084" font-family="Cascadia, Segoe UI Emoji" font-size="7.916882078859812px" fill="#000000" text-anchor="start" style="white-space: pre;" direction="ltr">}</text></g><g transform="translate(1015.8491252898525 956.2087813180121) rotate(0 34.91910488354233 4.806678405022041)"><text x="0" y="7.613356810044056" font-family="Cascadia, Segoe UI Emoji" font-size="7.91688207885981px" fill="#000000" text-anchor="start" style="white-space: pre;" direction="ltr">{ _id: string }</text></g><g stroke-linecap="round"><g transform="translate(726.5059350267629 1288.9534501205653) rotate(0 -82.93876463567415 -0.9424859617689663)"><path d="M0 0 C-27.65 -0.31, -138.23 -1.57, -165.88 -1.88" stroke="#000000" stroke-width="4.5" fill="none" stroke-dasharray="1.5 10"></path></g><g transform="translate(726.5059350267629 1288.9534501205653) rotate(0 -82.93876463567415 -0.9424859617689663)"><path d="M-137.57 -11.82 C-146.7 -8.62, -155.83 -5.41, -165.88 -1.88" stroke="#000000" stroke-width="4.5" fill="none" stroke-dasharray="1.5 8"></path></g><g transform="translate(726.5059350267629 1288.9534501205653) rotate(0 -82.93876463567415 -0.9424859617689663)"><path d="M-137.81 8.7 C-146.86 5.28, -155.91 1.87, -165.88 -1.88" stroke="#000000" stroke-width="4.5" fill="none" stroke-dasharray="1.5 8"></path></g></g><g stroke-linecap="round" transform="translate(425.85291322244007 1257.8514133821886) rotate(0 67.38774626648524 30.15955077660874)"><path d="M15.08 0 M15.08 0 C39.56 -1.64, 70.7 -1.69, 119.7 0 M15.08 0 C40.27 -1.62, 63.31 -0.32, 119.7 0 M119.7 0 C128.4 3.03, 135.19 2.51, 134.78 15.08 M119.7 0 C134.19 -2.99, 131.79 1.66, 134.78 15.08 M134.78 15.08 C138.23 19.67, 134.2 31.94, 134.78 45.24 M134.78 15.08 C132.92 24.56, 133.89 33.15, 134.78 45.24 M134.78 45.24 C134.76 51.91, 129.96 64.29, 119.7 60.32 M134.78 45.24 C136.27 54.33, 129.49 57.93, 119.7 60.32 M119.7 60.32 C86.58 56.41, 48.3 60.28, 15.08 60.32 M119.7 60.32 C87.43 56.7, 55.15 58.69, 15.08 60.32 M15.08 60.32 C2.07 58.02, 0.92 55.91, 0 45.24 M15.08 60.32 C6.04 58.29, 0.61 51.49, 0 45.24 M0 45.24 C1.2 36.91, 2.03 27.74, 0 15.08 M0 45.24 C-2.06 33.81, 0.15 21.87, 0 15.08 M0 15.08 C-0.39 3.48, 6.7 -0.24, 15.08 0 M0 15.08 C-4.53 2.85, 5.58 -1.13, 15.08 0" stroke="#c92a2a" stroke-width="4" fill="none"></path></g><g transform="translate(452.242520151975 1272.6955672800495) rotate(0 41.657879510190924 13.994443897954739)"><text x="0" y="22.98888779590949" font-family="Cascadia, Segoe UI Emoji" font-size="23.432557224482352px" fill="#c92a2a" text-anchor="start" style="white-space: pre;" direction="ltr">Output</text></g><g stroke-linecap="round" transform="translate(407.47443696794835 10) rotate(0 69.49361333731281 92.36362425336429)"><path d="M34.75 0 M34.75 0 C61.36 -0.91, 84.76 -0.65, 104.24 0 M34.75 0 C55.9 1.97, 76.09 -1.5, 104.24 0 M104.24 0 C126.25 -2.27, 139.66 10.32, 138.99 34.75 M104.24 0 C125.54 0.55, 137.74 8.72, 138.99 34.75 M138.99 34.75 C135.45 72.06, 139.49 108.82, 138.99 149.98 M138.99 34.75 C139.11 75.11, 140.95 119.44, 138.99 149.98 M138.99 149.98 C139.77 170.7, 124.59 184.27, 104.24 184.73 M138.99 149.98 C134.47 174.09, 130.64 184.79, 104.24 184.73 M104.24 184.73 C78.02 188.32, 56.22 187.52, 34.75 184.73 M104.24 184.73 C82.41 184.63, 57.63 184.93, 34.75 184.73 M34.75 184.73 C13.31 183.17, 0.78 176.87, 0 149.98 M34.75 184.73 C7.45 183.46, 1.57 175.1, 0 149.98 M0 149.98 C-0.52 106.94, -2.57 69.04, 0 34.75 M0 149.98 C-2.45 117.49, -2.26 87.45, 0 34.75 M0 34.75 C-1.67 10.14, 8.86 2.79, 34.75 0 M0 34.75 C1.53 12.2, 11.22 4.17, 34.75 0" stroke="#087f5b" stroke-width="4" fill="none"></path></g><g transform="translate(440.3436348846419 32.84792140132288) rotate(0 35.484596460603825 14.420035215066093)"><text x="0" y="22.84007043013216" font-family="Cascadia, Segoe UI Emoji" font-size="24.164824637747436px" fill="#087f5b" text-anchor="start" style="white-space: pre;" direction="ltr">Input</text></g></svg>