<svg version="1.1" xmlns="http://www.w3.org/2000/svg" viewBox="0 0 156.13458191647328 141.28316968448308" width="156.13458191647328" height="141.28316968448308">
  <!-- svg-source:excalidraw -->
  
  <defs>
    <style class="style-fonts">
      @font-face {
        font-family: "Virgil";
        src: url("https://excalidraw.com/Virgil.woff2");
      }
      @font-face {
        font-family: "Cascadia";
        src: url("https://excalidraw.com/Cascadia.woff2");
      }
    </style>
  </defs>
  <g stroke-linecap="round" transform="translate(10.026412602312291 16.326178570373454) rotate(0 2.6980279806531087 57.309835726976324)"><path d="M0 0 L5.4 0 L5.4 114.62 L0 114.62" stroke="none" stroke-width="0" fill="#343a40"></path><path d="M0 0 C1.98 0, 3.96 0, 5.4 0 M0 0 C1.44 0, 2.89 0, 5.4 0 M5.4 0 C5.4 37.63, 5.4 75.25, 5.4 114.62 M5.4 0 C5.4 30.96, 5.4 61.92, 5.4 114.62 M5.4 114.62 C3.54 114.62, 1.68 114.62, 0 114.62 M5.4 114.62 C3.91 114.62, 2.41 114.62, 0 114.62 M0 114.62 C0 75.05, 0 35.48, 0 0 M0 114.62 C0 85.64, 0 56.66, 0 0" stroke="transparent" stroke-width="4" fill="none"></path></g><g stroke-linecap="round" transform="translate(24.024113078939422 -4.024113078939395) rotate(89.99999999999994 6.281917517410847 20.30603059635029)"><path d="M0 0 L12.56 0 L12.56 40.61 L0 40.61" stroke="none" stroke-width="0" fill="#343a40"></path><path d="M0 0 C4.49 0, 8.99 0, 12.56 0 M0 0 C4.52 0, 9.04 0, 12.56 0 M12.56 0 C12.56 10.85, 12.56 21.69, 12.56 40.61 M12.56 0 C12.56 13.88, 12.56 27.75, 12.56 40.61 M12.56 40.61 C8.02 40.61, 3.48 40.61, 0 40.61 M12.56 40.61 C8.36 40.61, 4.16 40.61, 0 40.61 M0 40.61 C0 26.92, 0 13.22, 0 0 M0 40.61 C0 30.77, 0 20.92, 0 0" stroke="transparent" stroke-width="4" fill="none"></path></g><g stroke-linecap="round" transform="translate(26.903932238100708 108.15646509655855) rotate(89.99999999999994 3.1233738819317125 19.866284941983963)"><path d="M0 0 L6.25 0 L6.25 39.73 L0 39.73" stroke="none" stroke-width="0" fill="#343a40"></path><path d="M0 0 C1.39 0, 2.77 0, 6.25 0 M0 0 C1.58 0, 3.16 0, 6.25 0 M6.25 0 C6.25 12.72, 6.25 25.44, 6.25 39.73 M6.25 0 C6.25 11.04, 6.25 22.07, 6.25 39.73 M6.25 39.73 C4.94 39.73, 3.63 39.73, 0 39.73 M6.25 39.73 C4.13 39.73, 2.01 39.73, 0 39.73 M0 39.73 C0 26.48, 0 13.23, 0 0 M0 39.73 C0 29.29, 0 18.84, 0 0" stroke="transparent" stroke-width="4" fill="none"></path></g><g stroke-linecap="round" transform="translate(140.55661414947474 10.244923682665648) rotate(179.85998615526196 2.6980279806530802 57.309835726976324)"><path d="M0 0 L5.4 0 L5.4 114.62 L0 114.62" stroke="none" stroke-width="0" fill="#343a40"></path><path d="M0 0 C1.45 0, 2.91 0, 5.4 0 M0 0 C2.02 0, 4.05 0, 5.4 0 M5.4 0 C5.4 42.46, 5.4 84.93, 5.4 114.62 M5.4 0 C5.4 44.27, 5.4 88.53, 5.4 114.62 M5.4 114.62 C3.55 114.62, 1.71 114.62, 0 114.62 M5.4 114.62 C3.42 114.62, 1.45 114.62, 0 114.62 M0 114.62 C0 84.73, 0 54.84, 0 0 M0 114.62 C0 81.53, 0 48.43, 0 0" stroke="transparent" stroke-width="4" fill="none"></path></g><g stroke-linecap="round" transform="translate(119.53134331044134 104.64561847736647) rotate(269.8599861552619 6.281917517410875 20.306030596350283)"><path d="M0 0 L12.56 0 L12.56 40.61 L0 40.61" stroke="none" stroke-width="0" fill="#343a40"></path><path d="M0 0 C4.49 0, 8.98 0, 12.56 0 M0 0 C3.75 0, 7.51 0, 12.56 0 M12.56 0 C12.56 13.15, 12.56 26.29, 12.56 40.61 M12.56 0 C12.56 11.77, 12.56 23.54, 12.56 40.61 M12.56 40.61 C8.16 40.61, 3.76 40.61, 0 40.61 M12.56 40.61 C7.85 40.61, 3.14 40.61, 0 40.61 M0 40.61 C0 28.51, 0 16.4, 0 0 M0 40.61 C0 29.64, 0 18.67, 0 0" stroke="transparent" stroke-width="4" fill="none"></path></g><g stroke-linecap="round" transform="translate(122.69554950004726 -6.6558158682328905) rotate(269.8599861552619 3.123373881931741 19.86628494198396)"><path d="M0 0 L6.25 0 L6.25 39.73 L0 39.73" stroke="none" stroke-width="0" fill="#343a40"></path><path d="M0 0 C2.03 0, 4.05 0, 6.25 0 M0 0 C1.3 0, 2.6 0, 6.25 0 M6.25 0 C6.25 15.17, 6.25 30.34, 6.25 39.73 M6.25 0 C6.25 14.15, 6.25 28.3, 6.25 39.73 M6.25 39.73 C4.67 39.73, 3.09 39.73, 0 39.73 M6.25 39.73 C4.3 39.73, 2.35 39.73, 0 39.73 M0 39.73 C0 26.06, 0 12.39, 0 0 M0 39.73 C0 28.99, 0 18.24, 0 0" stroke="transparent" stroke-width="4" fill="none"></path></g><g transform="translate(55.12665438827554 29.41796630333723) rotate(0 39.2753781648112 39.82855250516066)"><text x="0" y="64.65710501032133" font-family="Cascadia, Segoe UI Emoji" font-size="65.90537241495475px" fill="#000000" text-anchor="start" style="white-space: pre;" direction="ltr">[]</text></g><g transform="translate(34.55119546162251 38.59569907054215) rotate(0 15.5 31)"><text x="0" y="50" font-family="Cascadia, Segoe UI Emoji" font-size="51.787945052847114px" fill="#000000" text-anchor="start" style="white-space: pre;" direction="ltr">C</text></g><g transform="translate(85.05449305609443 50.30806592139079) rotate(90.36075158498397 11 21.5)"><text x="0" y="35" font-family="Cascadia, Segoe UI Emoji" font-size="36px" fill="#000000" text-anchor="start" style="white-space: pre;" direction="ltr">1</text></g></svg>